<svg width="57" height="60" viewBox="0 0 57 60" fill="none" xmlns="http://www.w3.org/2000/svg">
<path d="M49.6757 27.3935C50.6453 25.5791 51.1973 23.5055 51.1973 21.3023C51.1973 14.1263 45.3797 8.3087 38.2037 8.3087C36.9845 8.3087 35.8085 8.4767 34.6901 8.7935C32.3381 4.9583 28.0997 2.3999 23.2661 2.3999C15.8597 2.3999 9.85972 8.4095 9.85972 15.8159C9.85972 17.5055 10.1717 19.1231 10.7477 20.6111C4.97812 21.8543 0.65332 26.9951 0.65332 33.1439C0.65332 37.0655 2.41492 40.5839 5.19412 42.9311C5.06932 43.6271 5.00212 44.3471 5.00212 45.0815C5.00212 51.9359 10.5605 57.4895 17.4101 57.4895C19.3637 57.4895 21.2069 57.0383 22.8485 56.2367C24.6869 58.5311 27.5189 59.9999 30.6869 59.9999C34.6037 59.9999 38.0021 57.7631 39.6629 54.4847C40.3685 54.5951 41.0981 54.6479 41.8421 54.6479C49.9925 54.6479 56.6021 48.0431 56.6021 39.8879C56.6021 34.6175 53.8373 29.9855 49.6709 27.3839L49.6757 27.3935Z" fill="#578246"/>
<path d="M49.6757 24.9936C50.6453 23.1792 51.1973 21.1056 51.1973 18.9024C51.1973 11.7264 45.3797 5.9088 38.2037 5.9088C36.9845 5.9088 35.8085 6.0768 34.6901 6.3936C32.3381 2.5584 28.0997 0 23.2661 0C15.8597 0 9.85972 6.0096 9.85972 13.416C9.85972 15.1056 10.1717 16.7232 10.7477 18.2112C4.97812 19.4544 0.65332 24.5952 0.65332 30.744C0.65332 34.6656 2.41492 38.184 5.19412 40.5312C5.06932 41.2272 5.00212 41.9472 5.00212 42.6816C5.00212 49.536 10.5605 55.0896 17.4101 55.0896C19.3637 55.0896 21.2069 54.6384 22.8485 53.8368C24.6869 56.1312 27.5189 57.6 30.6869 57.6C34.6037 57.6 38.0021 55.3632 39.6629 52.0848C40.3685 52.1952 41.0981 52.248 41.8421 52.248C49.9925 52.248 56.6021 45.6432 56.6021 37.488C56.6021 32.2176 53.8373 27.5856 49.6709 24.984L49.6757 24.9936Z" fill="#99C08E"/>
<path d="M20.5498 36.8112C20.4106 36.8112 20.2138 36.8208 19.9642 36.8448C19.7098 36.8688 19.5274 36.8784 19.4122 36.8784C18.9754 36.8784 18.6586 36.7632 18.4618 36.5328C18.265 36.3024 18.169 35.9328 18.169 35.4288C18.169 35.2896 18.2506 34.5648 18.409 33.2496C20.0218 32.7216 21.601 32.4528 23.1418 32.4528C23.257 32.4528 23.4298 32.4576 23.6602 32.472C23.8906 32.4816 24.073 32.4912 24.2122 32.4912L26.6314 32.352C26.5402 32.1456 26.4874 31.8624 26.4778 31.5072C26.4682 31.152 26.425 30.8736 26.3578 30.6768C26.2906 30.48 26.137 30.3696 25.9066 30.3504C25.561 30.2832 24.145 30.216 21.6538 30.1584C19.1674 30.1008 17.713 30.096 17.3002 30.1392C16.7722 30.2304 16.3162 30.2592 15.937 30.2256C15.5578 30.192 15.2746 29.9424 15.0922 29.4816C14.7466 28.7232 14.641 27.8688 14.7802 26.9232C14.8282 26.6928 15.0202 26.4624 15.3658 26.232C15.7114 26.0016 16.5178 25.8192 17.785 25.68C19.0522 25.5408 19.9498 25.5168 20.4826 25.6128H24.8218C25.6378 25.6128 26.209 25.6032 26.5306 25.5792C30.769 25.5312 33.2122 25.512 33.8554 25.512C34.4986 25.512 35.905 25.5696 38.0698 25.6848C40.2346 25.8 41.377 25.8576 41.4922 25.8576C41.6074 25.8576 41.8138 25.8912 42.1162 25.9632C42.601 26.0784 42.9274 26.2464 43.1002 26.4624C43.273 26.6832 43.3258 27.0336 43.2538 27.5184C43.2298 27.7008 43.2058 27.864 43.1866 28.0032C43.1626 28.1424 43.1386 28.2672 43.1194 28.3824C43.0954 28.4976 43.0522 28.5936 42.9802 28.6752C42.913 28.7568 42.865 28.8288 42.841 28.9008C42.817 28.9728 42.7498 29.0352 42.6346 29.0928C42.5194 29.1504 42.433 29.1984 42.3754 29.232C42.3178 29.2656 42.2026 29.3088 42.0298 29.352C41.857 29.4 41.7322 29.4336 41.6506 29.4576C41.569 29.4816 41.401 29.5248 41.1514 29.5968C40.897 29.664 40.7002 29.712 40.5658 29.736C40.3114 29.8032 38.8378 29.88 36.1402 29.9616C33.4426 30.0432 31.9594 30.1296 31.681 30.2208C31.5898 30.2448 31.537 30.3456 31.5274 30.5328C31.5178 30.7152 31.5178 30.912 31.5274 31.1184C31.537 31.3248 31.5322 31.5456 31.5082 31.776C31.5082 31.8432 31.5178 31.9488 31.5418 32.088C31.5658 32.2272 31.5754 32.3184 31.5754 32.3664C33.9274 32.4144 35.9434 32.4576 37.6234 32.5056C38.0602 32.5296 38.4634 32.6208 38.833 32.784C38.9722 32.832 39.0922 32.9232 39.1978 33.0624C39.3034 33.2016 39.3514 33.3264 39.3514 33.4416V33.9264C39.3514 34.5936 39.2506 35.136 39.0586 35.5488C38.8618 35.9616 38.4538 36.2736 37.8298 36.48C37.7146 36.528 37.3498 36.5568 36.7402 36.5664C36.1306 36.576 35.569 36.6048 35.065 36.6528C34.5562 36.7008 34.3066 36.792 34.3066 36.9312C34.2826 37.0464 34.2922 37.2288 34.3402 37.4832C34.3882 37.7376 34.4074 37.92 34.4074 38.0352C34.4074 38.0592 34.417 38.256 34.441 38.6208C34.465 38.9904 34.4746 39.2304 34.4746 39.3456L38.7946 39.624C38.7706 39.9216 38.7562 40.5264 38.7418 41.4384C38.7274 42.3504 38.6554 43.056 38.5162 43.5648C38.4922 43.656 38.4106 43.7616 38.2762 43.8768C38.137 43.992 38.0218 44.0496 37.9306 44.0496C37.609 44.0736 36.2698 44.0832 33.9226 44.0832C33.3898 44.0832 32.6218 44.0736 31.609 44.0496C30.5962 44.0256 29.8234 44.016 29.2954 44.016C28.441 44.016 27.1594 44.0208 25.441 44.0352C23.7226 44.0448 22.441 44.0544 21.5866 44.0544H18.7882C18.4666 44.0544 18.217 43.9632 18.0442 43.776C17.8714 43.5936 17.785 43.3488 17.785 43.0512C17.785 42.96 17.7946 42.8544 17.8186 42.7392C17.8186 42.672 17.8378 42.432 17.8714 42.0288C17.905 41.6256 17.9578 41.3328 18.025 41.1456C18.2074 40.7328 18.529 40.4544 18.9946 40.3152C19.4074 40.176 20.0026 40.0272 20.7754 39.864C21.5482 39.7008 22.0042 39.6096 22.1386 39.5856C22.4602 39.5184 22.6954 39.4464 22.849 39.3792C22.9978 39.312 23.1562 39.1824 23.3146 39C23.473 38.8176 23.5546 38.5728 23.5546 38.2752C23.5546 38.112 23.5786 37.9392 23.6218 37.7568C23.6698 37.5744 23.7322 37.3584 23.8138 37.1184C23.8954 36.8784 23.9482 36.7104 23.9674 36.6192C23.5306 36.7344 23.3002 36.792 23.2762 36.792C22.585 36.816 21.9418 36.8256 21.3418 36.8256H20.545L20.5498 36.8112ZM25.4218 12.4128C27.9562 12.2304 29.3818 12.1248 29.7082 12.1008C30.2362 12.1008 30.8266 12.2832 31.4698 12.6528C31.609 12.72 31.7338 12.864 31.849 13.0848C31.9642 13.3056 32.0218 13.5072 32.0218 13.6896C31.9978 15.12 32.1706 16.3968 32.5402 17.5248C32.6074 17.7552 33.169 18.12 34.2154 18.6144C35.2618 19.1088 36.0058 19.416 36.4426 19.5312C37.8922 19.9248 39.7258 20.4768 41.9386 21.192C42.3082 21.3072 42.5674 21.456 42.7162 21.6432C42.865 21.8256 42.8602 22.104 42.697 22.4736C42.6298 22.656 42.5626 22.7952 42.505 22.8864C42.4474 22.9776 42.3994 23.064 42.3658 23.1456C42.3322 23.2272 42.2794 23.3712 42.2122 23.5776C42.1642 23.808 42.1162 24.0576 42.0586 24.3216C42.001 24.5856 41.9722 24.7488 41.9722 24.8064C41.9722 24.864 41.9146 24.9408 41.7994 25.032C41.6842 25.1232 41.5738 25.176 41.473 25.1856C41.3674 25.1952 41.1562 25.224 40.8346 25.272C40.6954 25.296 40.3066 25.3728 39.6586 25.4976C39.0154 25.6224 38.5306 25.6896 38.209 25.6896C37.7242 25.6896 37.2298 25.4928 36.721 25.104C36.4666 24.8736 35.1418 24.1728 32.7466 22.9968C30.3514 21.8208 28.7242 21.0384 27.8746 20.6448C27.4378 20.4624 26.9434 20.496 26.3866 20.7504C25.3018 21.2112 23.9914 21.8688 22.4458 22.7184C21.7306 23.112 20.929 23.4672 20.0458 23.7888C19.1578 24.1104 18.4138 24.2496 17.8186 24.2016C17.3578 24.1536 17.0458 24.0624 16.8874 23.9232C16.7242 23.784 16.609 23.4864 16.5418 23.0256C16.4746 22.632 16.369 22.2288 16.2298 21.816C16.1146 21.4224 16.0474 21.12 16.0234 20.8992C15.9994 20.6784 16.0762 20.472 16.249 20.2752C16.4218 20.0784 16.5898 19.9344 16.7482 19.8432C16.9066 19.752 17.233 19.5888 17.7178 19.3584C18.457 18.9648 19.6954 18.3744 21.433 17.5776C23.1706 16.7808 24.217 16.3056 24.5626 16.1424C24.9562 15.96 25.2202 15.7104 25.3594 15.3984C25.4986 15.0864 25.5802 14.688 25.5994 14.208C25.5994 14.1408 25.5418 13.5408 25.4266 12.4128H25.4218ZM27.4954 39.0576C27.4954 39.4032 27.6778 39.576 28.0474 39.576H28.1866C28.345 39.576 28.7002 39.552 29.2426 39.5088C29.785 39.4608 30.2026 39.4272 30.505 39.4032C30.5722 39.3792 30.6586 39.336 30.7642 39.264C30.8698 39.1968 30.9178 39.1392 30.9178 39.0912C30.9418 38.6544 30.9514 38.2272 30.9514 37.8144C30.9514 37.2864 30.9418 36.7536 30.9178 36.2256C30.9178 36.1776 30.8554 36.12 30.7258 36.0528C30.601 35.9856 30.4906 35.9472 30.3994 35.9472H30.3658C30.1354 35.9712 29.3146 36.0864 27.913 36.2928C27.6586 37.8576 27.5194 38.7216 27.5002 38.8848V39.0576H27.4954Z" fill="#578246"/>
<path d="M20.6787 38.7312C20.5395 38.7312 20.3427 38.7408 20.0931 38.7648C19.8387 38.7888 19.6563 38.7984 19.5411 38.7984C19.1043 38.7984 18.7875 38.6832 18.5907 38.4528C18.3939 38.2224 18.2979 37.8528 18.2979 37.3488C18.2979 37.2096 18.3795 36.4848 18.5379 35.1696C20.1507 34.6416 21.7299 34.3728 23.2707 34.3728C23.3859 34.3728 23.5587 34.3776 23.7891 34.392C24.0195 34.4016 24.2019 34.4112 24.3411 34.4112L26.7603 34.272C26.6691 34.0656 26.6163 33.7824 26.6067 33.4272C26.5923 33.072 26.5539 32.7936 26.4867 32.5968C26.4195 32.4 26.2659 32.2896 26.0355 32.2704C25.6899 32.2032 24.2739 32.136 21.7827 32.0784C19.2963 32.0208 17.8419 32.016 17.4291 32.0592C16.9011 32.1504 16.4451 32.1792 16.0659 32.1456C15.6867 32.112 15.4035 31.8624 15.2211 31.4016C14.8755 30.6432 14.7699 29.7888 14.9091 28.8432C14.9571 28.6128 15.1491 28.3824 15.4947 28.152C15.8403 27.9216 16.6467 27.7392 17.9139 27.6C19.1811 27.4608 20.0787 27.4368 20.6115 27.5328H24.9507C25.7667 27.5328 26.3379 27.5232 26.6595 27.4992C30.8979 27.4512 33.3411 27.432 33.9843 27.432C34.6275 27.432 36.0339 27.4896 38.1987 27.6048C40.3635 27.72 41.5059 27.7776 41.6211 27.7776C41.7363 27.7776 41.9427 27.8112 42.2451 27.8832C42.7299 27.9984 43.0563 28.1664 43.2291 28.3824C43.4019 28.6032 43.4547 28.9536 43.3827 29.4384C43.3587 29.6208 43.3347 29.784 43.3155 29.9232C43.2915 30.0624 43.2675 30.1872 43.2483 30.3024C43.2243 30.4176 43.1811 30.5136 43.1091 30.5952C43.0419 30.6768 42.9939 30.7488 42.9699 30.8208C42.9459 30.888 42.8787 30.9552 42.7635 31.0128C42.6483 31.0704 42.5619 31.1184 42.5043 31.152C42.4467 31.1856 42.3315 31.2288 42.1587 31.272C41.9859 31.32 41.8611 31.3536 41.7795 31.3776C41.6979 31.4016 41.5299 31.4448 41.2803 31.5168C41.0307 31.5888 40.8291 31.632 40.6947 31.656C40.4403 31.7232 38.9667 31.8 36.2691 31.8816C33.5715 31.9632 32.0883 32.0496 31.8099 32.1408C31.7187 32.1648 31.6659 32.2656 31.6563 32.4528C31.6467 32.6352 31.6467 32.832 31.6563 33.0384C31.6659 33.2448 31.6611 33.4656 31.6371 33.696C31.6371 33.7632 31.6467 33.8688 31.6707 34.0079C31.6947 34.1472 31.7043 34.2384 31.7043 34.2864C34.0563 34.3344 36.0723 34.3776 37.7523 34.4256C38.1891 34.4496 38.5923 34.5408 38.9619 34.704C39.1011 34.752 39.2211 34.8432 39.3267 34.9824C39.4323 35.1216 39.4803 35.2464 39.4803 35.3616V35.8464C39.4803 36.5136 39.3843 37.056 39.1875 37.4688C38.9907 37.8816 38.5827 38.1936 37.9587 38.4C37.8435 38.448 37.4787 38.4768 36.8691 38.4864C36.2595 38.496 35.6979 38.5248 35.1939 38.5728C34.6851 38.6208 34.4355 38.712 34.4355 38.8512C34.4115 38.9664 34.4259 39.1488 34.4691 39.4032C34.5171 39.6576 34.5363 39.84 34.5363 39.9552C34.5363 39.9792 34.5459 40.176 34.5699 40.5408C34.5939 40.9104 34.6035 41.1504 34.6035 41.2656L38.9235 41.544C38.8995 41.8416 38.8851 42.4464 38.8707 43.3584C38.8611 44.2704 38.7843 44.976 38.6451 45.4848C38.6211 45.576 38.5395 45.6816 38.4051 45.7968C38.2659 45.912 38.1507 45.9696 38.0595 45.9696C37.7379 45.9936 36.3987 46.0032 34.0515 46.0032C33.5235 46.0032 32.7507 45.9936 31.7379 45.9696C30.7251 45.9456 29.9523 45.936 29.4243 45.936C28.5699 45.936 27.2883 45.9408 25.5699 45.9552C23.8515 45.9648 22.5699 45.9743 21.7155 45.9743H18.9171C18.5955 45.9743 18.3459 45.8832 18.1731 45.696C18.0003 45.5136 17.9139 45.2688 17.9139 44.9712C17.9139 44.88 17.9235 44.7744 17.9475 44.6592C17.9475 44.592 17.9667 44.352 18.0003 43.9488C18.0339 43.5456 18.0867 43.2528 18.1539 43.0656C18.3363 42.6528 18.6627 42.3744 19.1235 42.2352C19.5363 42.096 20.1315 41.9472 20.9043 41.784C21.6771 41.6208 22.1331 41.5296 22.2675 41.5056C22.5891 41.4384 22.8243 41.3664 22.9779 41.2992C23.1267 41.232 23.2851 41.1024 23.4435 40.92C23.6019 40.7376 23.6835 40.4928 23.6835 40.1952C23.6835 40.032 23.7075 39.8592 23.7507 39.6768C23.7987 39.4944 23.8611 39.2784 23.9427 39.0384C24.0243 38.7984 24.0771 38.6304 24.0963 38.5392C23.6595 38.6544 23.4291 38.712 23.4051 38.712C22.7139 38.736 22.0707 38.7456 21.4707 38.7456H20.6739L20.6787 38.7312ZM25.5507 14.3328C28.0851 14.1504 29.5107 14.0448 29.8371 14.0208C30.3651 14.0208 30.9555 14.2032 31.5987 14.5728C31.7379 14.64 31.8627 14.784 31.9779 15.0048C32.0931 15.2256 32.1507 15.4272 32.1507 15.6096C32.1267 17.04 32.2995 18.3168 32.6691 19.4448C32.7363 19.6752 33.2979 20.04 34.3443 20.5344C35.3907 21.0288 36.1347 21.336 36.5715 21.4512C38.0211 21.8448 39.8547 22.3968 42.0675 23.112C42.4371 23.2272 42.6963 23.376 42.8451 23.5632C42.9939 23.7456 42.9891 24.024 42.8259 24.3936C42.7587 24.576 42.6915 24.7152 42.6339 24.8064C42.5763 24.8976 42.5283 24.984 42.4947 25.0656C42.4611 25.1472 42.4083 25.2912 42.3411 25.4976C42.2931 25.728 42.2403 25.9776 42.1875 26.2416C42.1299 26.5056 42.1011 26.6688 42.1011 26.7264C42.1011 26.784 42.0435 26.8608 41.9283 26.952C41.8131 27.0432 41.7027 27.096 41.6019 27.1056C41.4963 27.1152 41.2851 27.144 40.9635 27.192C40.8243 27.216 40.4307 27.2928 39.7875 27.4176C39.1443 27.5424 38.6595 27.6096 38.3379 27.6096C37.8531 27.6096 37.3587 27.4128 36.8499 27.024C36.5955 26.7936 35.2707 26.0928 32.8755 24.9168C30.4803 23.7408 28.8531 22.9584 28.0035 22.5648C27.5667 22.3824 27.0723 22.416 26.5155 22.6704C25.4307 23.1312 24.1203 23.7888 22.5747 24.6384C21.8595 25.032 21.0579 25.3872 20.1747 25.7088C19.2867 26.0304 18.5427 26.1696 17.9475 26.1216C17.4867 26.0736 17.1747 25.9824 17.0163 25.8432C16.8531 25.704 16.7379 25.4064 16.6707 24.9456C16.6035 24.552 16.4979 24.1488 16.3587 23.736C16.2435 23.3424 16.1763 23.04 16.1523 22.8192C16.1283 22.5984 16.2051 22.392 16.3779 22.1952C16.5507 21.9984 16.7187 21.8544 16.8771 21.7632C17.0403 21.672 17.3619 21.5088 17.8467 21.2784C18.5859 20.8848 19.8243 20.2944 21.5619 19.4976C23.2995 18.7008 24.3459 18.2256 24.6915 18.0624C25.0851 17.88 25.3491 17.6304 25.4883 17.3184C25.6275 17.0064 25.7091 16.608 25.7283 16.128C25.7283 16.0608 25.6707 15.4608 25.5555 14.3328H25.5507ZM27.6243 40.9776C27.6243 41.3232 27.8067 41.496 28.1763 41.496H28.3155C28.4787 41.496 28.8291 41.472 29.3715 41.4288C29.9139 41.3808 30.3315 41.3472 30.6339 41.3232C30.7011 41.2992 30.7875 41.256 30.8931 41.184C30.9987 41.112 31.0467 41.0592 31.0467 41.0112C31.0707 40.5744 31.0803 40.1472 31.0803 39.7344C31.0803 39.2064 31.0707 38.6736 31.0467 38.1456C31.0467 38.0976 30.9843 38.04 30.8547 37.9728C30.7251 37.9056 30.6195 37.8672 30.5283 37.8672H30.4947C30.2643 37.8912 29.4483 38.0064 28.0419 38.2128C27.7875 39.7776 27.6483 40.6416 27.6291 40.8048V40.9776H27.6243Z" fill="white"/>
</svg>
