<svg width="41" height="46" viewBox="0 0 41 46" fill="none" xmlns="http://www.w3.org/2000/svg">
<path d="M20.5193 2.62873C21.7385 2.65753 23.4089 2.60473 25.1945 2.62873C28.9913 2.69113 37.9865 2.59993 39.7721 9.64153C41.8553 17.8639 40.1705 35.3551 39.3737 38.2639C38.5817 41.1727 37.1945 45.7999 29.9897 45.7999H12.8681C11.6777 45.7999 2.55772 45.3391 0.968918 36.6127C-0.615083 27.8911 0.176917 15.8623 0.359318 13.2511C0.541718 10.6447 1.03612 3.43513 9.89212 2.90233C15.3929 2.57593 18.3161 2.57593 20.5193 2.62873Z" fill="#BC3C6A"/>
<path d="M20.5193 0.228827C21.7385 0.257627 23.4089 0.204827 25.1945 0.228827C28.9913 0.291227 37.9865 0.200026 39.7721 7.24163C41.8553 15.464 40.1705 32.9552 39.3737 35.864C38.5817 38.7728 37.1945 43.4 29.9897 43.4H12.8681C11.6777 43.4 2.55772 42.9392 0.968918 34.2128C-0.615083 25.4912 0.176917 13.4624 0.359318 10.8512C0.541718 8.24483 1.03612 1.03523 9.89212 0.502426C15.3929 0.176026 18.3161 0.176027 20.5193 0.228827Z" fill="#F885A7"/>
<path d="M18.8535 20.5712C18.8199 20.1488 18.8055 19.784 18.8151 19.4768C18.8247 19.1696 18.9111 18.9104 19.0791 18.6992C19.2471 18.488 19.5159 18.3392 19.8855 18.248C20.6967 18.0704 21.1623 17.984 21.2871 17.984C21.7095 17.9504 22.0407 17.9504 22.2759 17.984C22.5159 18.0176 22.6791 18.1184 22.7751 18.2864C22.8711 18.4544 22.9575 18.776 23.0247 19.2512C23.0439 19.2848 23.0487 19.4288 23.0487 19.6736C23.0487 19.9184 23.0487 20.1536 23.0631 20.3744C23.0727 20.5952 23.0919 20.7056 23.1303 20.7056C23.5863 20.7056 24.6327 20.7344 26.2695 20.7968C27.9063 20.8592 28.9431 20.888 29.3847 20.888L31.6263 20.6768C31.6791 20.696 31.7559 20.7344 31.8519 20.7968C31.9479 20.8592 32.0679 20.984 32.2071 21.1664C32.3463 21.3536 32.3991 21.5504 32.3655 21.7616C32.3463 21.8672 32.2311 22.5632 32.0247 23.8448C31.7799 23.864 31.6455 23.8736 31.6263 23.8736C31.5399 23.8736 28.4487 23.84 22.3623 23.768C22.0263 23.768 21.1239 23.792 19.6407 23.8352C18.1623 23.8784 17.3079 23.9024 17.0823 23.9024C16.6599 23.9216 15.5847 23.912 13.8615 23.8736C12.1383 23.84 11.0727 23.8112 10.6647 23.792C10.5591 23.792 10.3047 23.8112 9.90154 23.8448C9.49834 23.8784 9.23914 23.8976 9.13354 23.8976C8.97514 23.8976 8.84554 23.8832 8.73994 23.8592C8.63434 23.8304 8.55754 23.7776 8.51434 23.6864C8.47114 23.6 8.44234 23.5232 8.43274 23.4608C8.42314 23.3984 8.41354 23.2736 8.40874 23.0768C8.39914 22.8848 8.39434 22.7312 8.39434 22.6256C8.36074 22.3088 8.36074 21.8528 8.39434 21.2528C8.41354 20.936 8.57194 20.7776 8.86954 20.7776C9.31114 20.7584 10.6023 20.768 12.7479 20.8064C14.8935 20.84 16.2231 20.8496 16.7367 20.8304C16.9479 20.8304 17.6535 20.744 18.8487 20.5664L18.8535 20.5712ZM11.6199 10.856C11.7591 10.8368 11.9511 10.7984 12.1863 10.736C12.4263 10.6736 12.6327 10.6304 12.8055 10.6016C12.9831 10.5776 13.1559 10.5536 13.3335 10.5344C16.4151 10.4288 18.8007 10.376 20.4903 10.376C22.4103 10.376 24.4599 10.4384 26.6439 10.5584C27.2583 10.5584 27.6375 10.5728 27.7767 10.5968C27.9159 10.6256 28.1127 10.664 28.3575 10.7168C28.6023 10.7696 28.7943 10.8512 28.9239 10.9664C29.0583 11.0816 29.1495 11.2256 29.2023 11.4032C29.2215 11.4752 29.2455 11.5616 29.2839 11.6672C29.3559 11.9504 29.3991 12.1664 29.4135 12.3296C29.4327 12.5216 29.4471 12.7184 29.4663 12.9104C29.5383 12.944 29.5575 13.6832 29.5335 15.128C29.5047 16.5728 29.4951 17.312 29.4951 17.3456C29.5143 17.8736 29.4087 18.2624 29.1783 18.5072C28.9479 18.752 28.5783 18.8864 28.0695 18.9056C27.9111 18.9056 27.6807 18.8912 27.3831 18.8672C27.0855 18.8384 26.8647 18.8288 26.7207 18.8288C25.9623 18.848 25.5687 17.8592 25.5303 15.872C25.5303 15.2384 25.4487 14.8496 25.2807 14.7104C25.1127 14.5712 24.7287 14.48 24.1335 14.4464C24.0471 14.4464 23.9751 14.4368 23.9223 14.4176C22.3911 14.3312 21.4503 14.288 21.0951 14.288C18.4743 14.2352 15.9735 14.2256 13.5975 14.2592H12.8583C12.6999 14.2592 12.5415 14.2352 12.3831 14.192C12.2247 14.1488 12.1191 14.12 12.0663 14.1152C12.0135 14.1056 11.9607 14.0336 11.9079 13.904C11.8551 13.7744 11.8263 13.6736 11.8263 13.616C11.8263 13.5584 11.8167 13.4 11.8023 13.1552C11.7831 12.9104 11.7687 12.704 11.7495 12.5456C11.6631 11.4368 11.6199 10.8752 11.6199 10.856ZM19.5927 24.584C20.6151 24.584 21.8103 24.6656 23.1831 24.8336C24.5559 25.0016 25.7175 25.2176 26.6679 25.4816C28.2855 25.9568 29.1831 26.8016 29.3607 28.016C29.4135 28.3328 29.4423 28.6256 29.4423 28.8896C29.4423 30.0704 28.9767 31.0112 28.0407 31.712C27.4071 32.1872 26.8839 32.5616 26.4711 32.8352C26.0583 33.1088 25.5351 33.368 24.9015 33.6128C24.2679 33.8576 23.6343 33.992 23.0007 34.0112C22.7559 34.0112 22.1175 34.04 21.0855 34.1024C20.0583 34.1648 19.3671 34.1936 19.0119 34.1936C18.5175 34.1936 18.0807 34.16 17.6919 34.088C17.6055 34.088 17.4807 34.0688 17.3223 34.0352C16.5831 33.9104 16.0215 33.8096 15.6327 33.7328C15.2439 33.656 14.7735 33.4928 14.2215 33.2432C13.6647 32.9984 13.1943 32.6816 12.8103 32.2928C12.1047 31.6064 11.7543 30.9632 11.7543 30.3632C11.7543 29.1296 11.9319 28.2176 12.2823 27.6176C13.2663 25.9616 15.2919 24.9776 18.3543 24.6608C18.7575 24.608 19.1751 24.5792 19.5927 24.5792V24.584ZM23.4711 30.7328C23.9127 30.7328 24.2871 30.5552 24.5943 30.2048C24.9015 29.8544 25.0551 29.4224 25.0551 28.9088C25.0551 28.1696 24.6519 27.7136 23.8407 27.536C22.9767 27.3584 21.2631 27.272 18.6903 27.272H18.6663C18.4215 27.272 18.2055 27.3152 18.0183 27.4016C17.8359 27.488 17.6823 27.6272 17.5719 27.8096C17.4567 27.992 17.3799 28.1552 17.3319 28.2992C17.2887 28.4384 17.2311 28.64 17.1591 28.904C17.1255 29.0288 17.1063 29.144 17.1063 29.2496C17.1063 29.5328 17.2071 29.7584 17.4087 29.936C17.6103 30.1136 17.8599 30.224 18.1623 30.2816C18.4599 30.3536 18.8679 30.4112 19.3767 30.464C19.8855 30.5168 20.3367 30.5504 20.7207 30.5696C21.1095 30.5888 21.6039 30.6128 22.2135 30.6464C22.8183 30.68 23.2119 30.7088 23.3895 30.728H23.4711V30.7328Z" fill="#BC3C6A"/>
<path d="M18.8535 22.0111C18.8199 21.5887 18.8055 21.2239 18.8151 20.9167C18.8247 20.6095 18.9111 20.3503 19.0791 20.1391C19.2471 19.9279 19.5159 19.7791 19.8855 19.6879C20.6967 19.5103 21.1623 19.4239 21.2871 19.4239C21.7095 19.3903 22.0407 19.3903 22.2759 19.4239C22.5159 19.4575 22.6791 19.5583 22.7751 19.7263C22.8711 19.8943 22.9575 20.2159 23.0247 20.6911C23.0439 20.7247 23.0487 20.8687 23.0487 21.1135C23.0487 21.3583 23.0487 21.5935 23.0631 21.8143C23.0727 22.0351 23.0919 22.1455 23.1303 22.1455C23.5863 22.1455 24.6327 22.1743 26.2695 22.2367C27.9063 22.2991 28.9431 22.3279 29.3847 22.3279L31.6263 22.1167C31.6791 22.1359 31.7559 22.1743 31.8519 22.2367C31.9479 22.2991 32.0679 22.4239 32.2071 22.6063C32.3463 22.7935 32.3991 22.9903 32.3655 23.2015C32.3463 23.3071 32.2311 24.0031 32.0247 25.2847C31.7799 25.3039 31.6455 25.3135 31.6263 25.3135C31.5399 25.3135 28.4487 25.2799 22.3623 25.2079C22.0263 25.2079 21.1239 25.2319 19.6407 25.2751C18.1623 25.3183 17.3079 25.3423 17.0823 25.3423C16.6599 25.3615 15.5847 25.3519 13.8615 25.3135C12.1383 25.2799 11.0727 25.2511 10.6647 25.2319C10.5591 25.2319 10.3047 25.2511 9.90154 25.2847C9.49834 25.3183 9.23914 25.3375 9.13354 25.3375C8.97514 25.3375 8.84554 25.3231 8.73994 25.2991C8.63434 25.2703 8.55754 25.2175 8.51434 25.1263C8.47114 25.0399 8.44234 24.9631 8.43274 24.9007C8.42314 24.8383 8.41354 24.7135 8.40874 24.5167C8.39914 24.3247 8.39434 24.1711 8.39434 24.0655C8.36074 23.7487 8.36074 23.2927 8.39434 22.6927C8.41354 22.3759 8.57194 22.2175 8.86954 22.2175C9.31114 22.1983 10.6023 22.2079 12.7479 22.2463C14.8935 22.2799 16.2231 22.2895 16.7367 22.2703C16.9479 22.2703 17.6535 22.1839 18.8487 22.0063L18.8535 22.0111ZM11.6199 12.2959C11.7591 12.2767 11.9511 12.2383 12.1863 12.1759C12.4263 12.1135 12.6327 12.0703 12.8055 12.0415C12.9831 12.0175 13.1559 11.9935 13.3335 11.9743C16.4151 11.8687 18.8007 11.8159 20.4903 11.8159C22.4103 11.8159 24.4599 11.8783 26.6439 11.9983C27.2583 11.9983 27.6375 12.0127 27.7767 12.0367C27.9159 12.0655 28.1127 12.1039 28.3575 12.1567C28.6023 12.2095 28.7943 12.2911 28.9239 12.4063C29.0583 12.5215 29.1495 12.6655 29.2023 12.8431C29.2215 12.9151 29.2455 13.0015 29.2839 13.1071C29.3559 13.3903 29.3991 13.6063 29.4135 13.7695C29.4327 13.9615 29.4471 14.1583 29.4663 14.3503C29.5383 14.3839 29.5575 15.1231 29.5335 16.5679C29.5047 18.0127 29.4951 18.7519 29.4951 18.7855C29.5143 19.3135 29.4087 19.7023 29.1783 19.9471C28.9479 20.1919 28.5783 20.3263 28.0695 20.3455C27.9111 20.3455 27.6807 20.3311 27.3831 20.3071C27.0855 20.2783 26.8647 20.2687 26.7207 20.2687C25.9623 20.2879 25.5687 19.2991 25.5303 17.3119C25.5303 16.6783 25.4487 16.2895 25.2807 16.1503C25.1127 16.0111 24.7287 15.9199 24.1335 15.8863C24.0471 15.8863 23.9751 15.8767 23.9223 15.8575C22.3911 15.7711 21.4503 15.7279 21.0951 15.7279C18.4743 15.6751 15.9735 15.6655 13.5975 15.6991H12.8583C12.6999 15.6991 12.5415 15.6751 12.3831 15.6319C12.2247 15.5887 12.1191 15.5599 12.0663 15.5551C12.0135 15.5455 11.9607 15.4735 11.9079 15.3439C11.8551 15.2143 11.8263 15.1135 11.8263 15.0559C11.8263 14.9983 11.8167 14.8399 11.8023 14.5951C11.7831 14.3503 11.7687 14.1439 11.7495 13.9855C11.6631 12.8767 11.6199 12.3151 11.6199 12.2959ZM19.5927 26.0239C20.6151 26.0239 21.8103 26.1055 23.1831 26.2735C24.5559 26.4415 25.7175 26.6575 26.6679 26.9215C28.2855 27.3967 29.1831 28.2415 29.3607 29.4559C29.4135 29.7727 29.4423 30.0655 29.4423 30.3295C29.4423 31.5103 28.9767 32.4511 28.0407 33.1519C27.4071 33.6271 26.8839 34.0015 26.4711 34.2751C26.0583 34.5487 25.5351 34.8079 24.9015 35.0527C24.2679 35.2975 23.6343 35.4319 23.0007 35.4511C22.7559 35.4511 22.1175 35.4799 21.0855 35.5423C20.0583 35.6047 19.3671 35.6335 19.0119 35.6335C18.5175 35.6335 18.0807 35.5999 17.6919 35.5279C17.6055 35.5279 17.4807 35.5087 17.3223 35.4751C16.5831 35.3503 16.0215 35.2495 15.6327 35.1727C15.2439 35.0959 14.7735 34.9327 14.2215 34.6831C13.6647 34.4383 13.1943 34.1215 12.8103 33.7327C12.1047 33.0463 11.7543 32.4031 11.7543 31.8031C11.7543 30.5695 11.9319 29.6575 12.2823 29.0575C13.2663 27.4015 15.2919 26.4175 18.3543 26.1007C18.7575 26.0479 19.1751 26.0191 19.5927 26.0191V26.0239ZM23.4711 32.1727C23.9127 32.1727 24.2871 31.9951 24.5943 31.6447C24.9015 31.2943 25.0551 30.8623 25.0551 30.3487C25.0551 29.6095 24.6519 29.1535 23.8407 28.9759C22.9767 28.7983 21.2631 28.7119 18.6903 28.7119H18.6663C18.4215 28.7119 18.2055 28.7551 18.0183 28.8415C17.8359 28.9279 17.6823 29.0671 17.5719 29.2495C17.4567 29.4319 17.3799 29.5951 17.3319 29.7391C17.2887 29.8783 17.2311 30.0799 17.1591 30.3439C17.1255 30.4687 17.1063 30.5839 17.1063 30.6895C17.1063 30.9727 17.2071 31.1983 17.4087 31.3759C17.6103 31.5535 17.8599 31.6639 18.1623 31.7215C18.4599 31.7935 18.8679 31.8511 19.3767 31.9039C19.8855 31.9567 20.3367 31.9903 20.7207 32.0095C21.1095 32.0287 21.6039 32.0527 22.2135 32.0863C22.8183 32.1199 23.2119 32.1487 23.3895 32.1679H23.4711V32.1727Z" fill="white"/>
</svg>
