<svg width="33" height="37" viewBox="0 0 33 37" fill="none" xmlns="http://www.w3.org/2000/svg">
<path d="M5.89532 5.08638C5.89532 5.08638 0.855328 7.16478 0.394528 14.3216C-0.066272 21.4784 0.624922 28.6688 1.85852 31.6928C3.09212 34.7168 5.55453 36.7184 10.5561 36.7184C15.5577 36.7184 18.6393 36.4496 23.4105 36.7184C26.2713 36.8816 29.8761 37.256 31.8009 32.792C33.7257 28.328 32.6457 13.9376 30.9945 8.85438C29.9049 5.50878 27.4473 2.85918 18.8745 3.23358C10.9449 3.57918 9.10172 3.57918 5.90493 5.08158L5.89532 5.08638Z" fill="#C18E1B"/>
<path d="M5.89532 2.68623C5.89532 2.68623 0.855328 4.76463 0.394528 11.9214C-0.066272 19.0782 0.624922 26.2686 1.85852 29.2926C3.09212 32.3166 5.55453 34.3182 10.5561 34.3182C15.5577 34.3182 18.6393 34.0494 23.4105 34.3182C26.2713 34.4814 29.8761 34.8558 31.8009 30.3918C33.7257 25.9278 32.6457 11.5374 30.9945 6.45423C29.9049 3.10863 27.4473 0.459035 18.8745 0.833434C10.9449 1.17903 9.10172 1.17903 5.90493 2.68143L5.89532 2.68623Z" fill="#FED054"/>
<path d="M12.0155 8.62379C12.1355 8.63819 12.3227 8.66219 12.5819 8.70539C12.8363 8.74379 13.0667 8.78219 13.2683 8.81579C13.4699 8.84939 13.6571 8.89259 13.8347 8.94539C13.8875 8.97419 14.0891 9.04139 14.4299 9.14699C14.7707 9.25259 15.0059 9.32939 15.1259 9.36779C15.2459 9.40619 15.4379 9.47339 15.7019 9.56939C15.9659 9.66539 16.1867 9.75659 16.3787 9.84299C16.5659 9.92939 16.7531 10.0206 16.9451 10.1166C17.6459 10.5054 18.0971 11.0286 18.3035 11.691C18.5099 12.3486 18.4859 13.0494 18.2315 13.7886C17.8955 14.8926 17.4923 15.9102 17.0219 16.851C16.9019 17.0814 16.7291 17.2926 16.5083 17.4942C16.2875 17.6958 16.0619 17.835 15.8315 17.9166C14.2043 18.483 12.9755 18.795 12.1403 18.8622C10.8491 18.9678 9.80753 18.6558 9.01553 17.9166C8.54513 17.475 8.21393 16.7598 8.02673 15.7806C7.57073 13.3614 8.15632 11.307 9.77872 9.61259C10.3835 8.97899 11.1275 8.65259 12.0155 8.62379ZM20.8235 22.9758C18.7691 23.2446 17.6651 23.3934 17.5163 23.4174C16.7099 23.5374 15.2027 23.6334 12.9899 23.7006C10.7771 23.7678 9.25553 23.739 8.42513 23.619C8.34353 23.6046 8.26193 23.5566 8.17073 23.4798C8.08433 23.3982 8.04113 23.3262 8.04113 23.259C7.98833 22.4814 7.98833 21.8478 8.04113 21.363C8.06993 21.027 8.20913 20.6286 8.46353 20.1726C9.33713 19.9326 9.94193 19.7982 10.2779 19.7694C10.5179 19.731 11.6699 19.7454 13.7339 19.8174C15.7979 19.8894 16.9307 19.9278 17.1323 19.9278C17.3867 19.9134 17.7707 19.9038 18.2795 19.899C18.7883 19.8942 19.1723 19.8846 19.4267 19.8702L20.8763 19.731C20.9723 17.4462 21.0251 16.1838 21.0395 15.939L21.3611 8.41739C21.3995 8.36459 21.4667 8.30219 21.5627 8.23499C21.6587 8.16779 21.8651 8.07179 22.1867 7.95179C22.5083 7.83179 22.8443 7.75499 23.1947 7.73099C23.3675 7.71659 23.5931 7.73099 23.8619 7.75979C24.1307 7.79339 24.3611 7.83659 24.5483 7.88939L24.8315 7.95179C24.8843 8.00459 24.9563 8.07179 25.0427 8.14379C25.1291 8.21579 25.2299 8.36459 25.3451 8.58539C25.4603 8.80619 25.4891 9.01259 25.4363 9.19979C25.2491 9.76619 25.1051 11.6478 25.0139 14.8542C24.9179 18.0606 24.8603 19.7646 24.8315 19.9662C24.8171 20.1294 24.8123 20.4462 24.8219 20.9214C24.8267 21.3966 24.8027 21.7134 24.7499 21.8574C24.7115 22.0206 24.6971 22.491 24.7211 23.2686C24.7451 24.0462 24.7211 24.507 24.6683 24.6414C24.5483 25.0158 24.3803 25.275 24.1643 25.4094C23.9483 25.5438 23.6315 25.611 23.2187 25.611C22.5323 25.5966 22.0235 25.563 21.6875 25.5102C21.2171 25.4142 21.0107 25.1454 21.0635 24.7038C21.0779 24.5982 21.0395 24.3246 20.9531 23.8878C20.8667 23.451 20.8235 23.1438 20.8235 22.971V22.9758ZM14.6555 13.7838C14.6555 13.1934 14.5403 12.771 14.3147 12.5118C14.0843 12.2574 13.7147 12.1278 13.2059 12.1278C12.6155 12.1278 12.0923 12.3582 11.6315 12.8238C11.1755 13.2894 10.9403 13.8222 10.9259 14.427C10.9259 14.763 11.1323 15.1182 11.5499 15.4878C11.9675 15.8574 12.3611 16.0206 12.7403 15.9822C13.2395 15.9294 13.6811 15.699 14.0699 15.2958C14.4587 14.8926 14.6555 14.3886 14.6555 13.7838Z" fill="#C18E1B"/>
<path d="M12.0155 10.064C12.1355 10.0784 12.3227 10.1024 12.5819 10.1456C12.8363 10.184 13.0667 10.2224 13.2683 10.256C13.4699 10.2896 13.6571 10.3328 13.8347 10.3856C13.8875 10.4144 14.0891 10.4816 14.4299 10.5872C14.7707 10.6928 15.0059 10.7696 15.1259 10.808C15.2459 10.8464 15.4379 10.9136 15.7019 11.0096C15.9659 11.1056 16.1867 11.1968 16.3787 11.2832C16.5659 11.3696 16.7531 11.4608 16.9451 11.5568C17.6459 11.9456 18.0971 12.4688 18.3035 13.1312C18.5099 13.7888 18.4859 14.4896 18.2315 15.2288C17.8955 16.3328 17.4923 17.3504 17.0219 18.2912C16.9019 18.5216 16.7291 18.7328 16.5083 18.9344C16.2875 19.136 16.0619 19.2752 15.8315 19.3568C14.2043 19.9232 12.9755 20.2352 12.1403 20.3024C10.8491 20.408 9.80753 20.096 9.01553 19.3568C8.54513 18.9152 8.21393 18.2 8.02673 17.2208C7.57073 14.8016 8.15632 12.7472 9.77872 11.0528C10.3835 10.4192 11.1275 10.0928 12.0155 10.064ZM20.8235 24.416C18.7691 24.6848 17.6651 24.8336 17.5163 24.8576C16.7099 24.9776 15.2027 25.0736 12.9899 25.1408C10.7771 25.208 9.25553 25.1792 8.42513 25.0592C8.34353 25.0448 8.26193 24.9968 8.17073 24.92C8.08433 24.8384 8.04113 24.7664 8.04113 24.6992C7.98833 23.9216 7.98833 23.288 8.04113 22.8032C8.06993 22.4672 8.20913 22.0688 8.46353 21.6128C9.33713 21.3728 9.94193 21.2384 10.2779 21.2096C10.5179 21.1712 11.6699 21.1856 13.7339 21.2576C15.7979 21.3296 16.9307 21.368 17.1323 21.368C17.3867 21.3536 17.7707 21.344 18.2795 21.3392C18.7883 21.3344 19.1723 21.3248 19.4267 21.3104L20.8763 21.1712C20.9723 18.8864 21.0251 17.624 21.0395 17.3792L21.3611 9.85758C21.3995 9.80478 21.4667 9.74238 21.5627 9.67518C21.6587 9.60798 21.8651 9.51198 22.1867 9.39198C22.5083 9.27198 22.8443 9.19518 23.1947 9.17118C23.3675 9.15678 23.5931 9.17118 23.8619 9.19998C24.1307 9.23358 24.3611 9.27678 24.5483 9.32958L24.8315 9.39198C24.8843 9.44478 24.9563 9.51198 25.0427 9.58398C25.1291 9.65598 25.2299 9.80478 25.3451 10.0256C25.4603 10.2464 25.4891 10.4528 25.4363 10.64C25.2491 11.2064 25.1051 13.088 25.0139 16.2944C24.9179 19.5008 24.8603 21.2048 24.8315 21.4064C24.8171 21.5696 24.8123 21.8864 24.8219 22.3616C24.8267 22.8368 24.8027 23.1536 24.7499 23.2976C24.7115 23.4608 24.6971 23.9312 24.7211 24.7088C24.7451 25.4864 24.7211 25.9472 24.6683 26.0816C24.5483 26.456 24.3803 26.7152 24.1643 26.8496C23.9483 26.984 23.6315 27.0512 23.2187 27.0512C22.5323 27.0368 22.0235 27.0032 21.6875 26.9504C21.2171 26.8544 21.0107 26.5856 21.0635 26.144C21.0779 26.0384 21.0395 25.7648 20.9531 25.328C20.8667 24.8912 20.8235 24.584 20.8235 24.4112V24.416ZM14.6555 15.224C14.6555 14.6336 14.5403 14.2112 14.3147 13.952C14.0843 13.6976 13.7147 13.568 13.2059 13.568C12.6155 13.568 12.0923 13.7984 11.6315 14.264C11.1755 14.7296 10.9403 15.2624 10.9259 15.8672C10.9259 16.2032 11.1323 16.5584 11.5499 16.928C11.9675 17.2976 12.3611 17.4608 12.7403 17.4224C13.2395 17.3696 13.6811 17.1392 14.0699 16.736C14.4587 16.3328 14.6555 15.8288 14.6555 15.224Z" fill="white"/>
</svg>
