<svg width="42" height="46" viewBox="0 0 42 46" fill="none" xmlns="http://www.w3.org/2000/svg">
<path d="M16.3209 2.76318C15.5385 2.76318 12.6489 2.88318 11.8713 2.93598C9.08734 3.13758 1.10014 4.33758 0.783341 11.456C0.399341 20.0816 0.653738 33.8528 1.74814 37.5872C2.84254 41.3216 6.39934 44.6144 12.3657 45.1808C17.4345 45.6608 29.3577 46.7264 33.3465 44.0864C38.6649 40.568 39.7833 38.0384 40.4265 29.0288C41.0697 20.0192 43.9641 7.33758 35.2761 4.31358C28.2537 1.87038 17.5113 2.76318 16.3161 2.76318H16.3209Z" fill="#418099"/>
<path d="M16.3209 0.363282C15.5385 0.363282 12.6489 0.483281 11.8713 0.536081C9.08734 0.737681 1.10014 1.93768 0.783341 9.05608C0.399341 17.6817 0.653738 31.4529 1.74814 35.1873C2.84254 38.9217 6.39934 42.2145 12.3657 42.7809C17.4345 43.2609 29.3577 44.3265 33.3465 41.6865C38.6649 38.1681 39.7833 35.6385 40.4265 26.6289C41.0697 17.6193 43.9641 4.93768 35.2761 1.91368C28.2537 -0.529519 17.5113 0.363282 16.3161 0.363282H16.3209Z" fill="#97CFDB"/>
<path d="M23.7039 30.4112C23.6511 30.6944 23.5743 31.1264 23.4783 31.7168C23.3823 32.3072 23.3151 32.672 23.2815 32.8112C23.2095 33.2 22.9839 33.4256 22.5951 33.4976C22.2063 33.5696 21.2991 33.6224 19.8735 33.656C19.5231 33.6752 19.3119 33.464 19.2399 33.0224V31.9136C19.2399 31.7888 19.2399 31.664 19.2543 31.5296C19.2687 31.3952 19.2543 31.2944 19.2399 31.2272C19.2207 31.1552 19.2159 31.0928 19.2159 31.0304C19.2159 30.968 19.1919 30.92 19.1487 30.8864C19.1055 30.8528 19.0671 30.8192 19.0431 30.7952C19.0191 30.7664 18.9567 30.7424 18.8607 30.7136C18.7647 30.6848 18.6831 30.6704 18.6207 30.6608C18.5583 30.6512 18.4479 30.632 18.2895 30.5936C17.9919 30.5408 16.7007 30.4784 14.4207 30.4112C12.1407 30.3392 10.7631 30.3056 10.2879 30.3056C9.99031 30.3056 9.75031 30.1184 9.57271 29.7536C9.23671 28.9952 9.21271 28.0832 9.49111 27.008C9.52471 26.816 9.76471 26.672 10.2063 26.5856C10.2591 26.552 10.7871 26.5376 11.7903 26.5472C12.7935 26.5568 13.3215 26.5616 13.3743 26.5616C13.9359 26.5424 15.5679 26.504 18.2559 26.4416C20.9487 26.3792 22.5231 26.3408 22.9839 26.3216C23.5311 26.288 25.0047 26.2592 27.4047 26.24C29.8047 26.2208 31.1487 26.216 31.4319 26.216C31.8207 26.1968 32.1279 26.456 32.3535 26.9792C32.7231 27.752 32.8047 28.5296 32.5935 29.3024C32.5215 29.5664 32.3103 29.7584 31.9599 29.8832C31.5711 30.0416 30.1983 30.1568 27.8415 30.224C25.4847 30.296 24.2511 30.3296 24.1455 30.3296L23.6943 30.4112H23.7039ZM16.8927 14.7824L25.2351 14.3312V11.1632C25.6047 11.0768 25.9983 11.0096 26.4207 10.9664C26.8431 10.9232 27.2031 10.904 27.5007 10.9136C27.7983 10.9232 28.1967 10.9328 28.6911 10.9424C29.1855 10.952 29.5455 10.9568 29.7711 10.9568C29.8959 10.9568 30.0255 11.0336 30.1695 11.1824C30.3087 11.3312 30.3999 11.4704 30.4335 11.5904C30.9087 13.6832 31.1823 15.1376 31.2543 15.9488C31.2879 16.232 31.2879 16.5152 31.2543 16.808C31.2207 17.096 31.1631 17.4656 31.0815 17.9024C30.9999 18.344 30.9519 18.6224 30.9375 18.7472C30.9039 18.9056 30.7071 20.0144 30.3567 22.0736C29.1231 22.1792 28.4751 22.232 28.4031 22.232C23.3535 22.424 20.3583 22.52 19.4271 22.52C18.0351 22.52 16.0287 22.3712 13.4079 22.0688C12.6879 21.9824 12.1071 21.6944 11.6799 21.2096C11.2479 20.7248 11.0319 20.1392 11.0319 19.4528L11.0031 16.5248C10.9839 16.1024 10.9359 15.488 10.8591 14.6768C10.7775 13.8656 10.7295 13.2704 10.7151 12.8816C10.7151 12.7568 10.7391 12.6224 10.7967 12.4736C10.8495 12.3248 10.9215 12.224 11.0079 12.1712C12.0975 11.6432 13.1487 11.4608 14.1519 11.6192C15.1215 11.7584 15.6399 11.8304 15.7071 11.8304C16.1487 11.8304 16.4511 11.936 16.6191 12.1472C16.7871 12.3584 16.8783 12.6656 16.8975 13.0688V14.7872L16.8927 14.7824ZM17.2335 17.0768C17.2143 17.1632 17.1903 17.3072 17.1519 17.4992C17.1183 17.6912 17.0895 17.8688 17.0703 18.0272C17.0511 18.1856 17.0511 18.344 17.0703 18.5024C17.0895 19.2944 17.1951 19.784 17.3871 19.9664C17.5791 20.1536 18.0639 20.2448 18.8415 20.2448C20.9007 20.2112 22.6143 20.1632 23.9871 20.1152C24.7263 20.096 25.2255 19.9952 25.4799 19.8128C25.7343 19.6256 25.9311 19.2368 26.0751 18.6368C26.2143 18.0224 26.1087 17.504 25.7583 17.0912C25.4079 16.6784 24.8895 16.4864 24.1983 16.5248C23.7759 16.544 21.4527 16.7264 17.2287 17.0768H17.2335Z" fill="#418099"/>
<path d="M23.7039 31.8511C23.6511 32.1343 23.5743 32.5663 23.4783 33.1567C23.3823 33.7471 23.3151 34.1119 23.2815 34.2511C23.2095 34.6399 22.9839 34.8655 22.5951 34.9375C22.2063 35.0095 21.2991 35.0623 19.8735 35.0959C19.5231 35.1151 19.3119 34.9039 19.2399 34.4623V33.3535C19.2399 33.2287 19.2399 33.1039 19.2543 32.9695C19.2687 32.8351 19.2543 32.7343 19.2399 32.6671C19.2207 32.5951 19.2159 32.5327 19.2159 32.4703C19.2159 32.4079 19.1919 32.3599 19.1487 32.3263C19.1055 32.2927 19.0671 32.2591 19.0431 32.2351C19.0191 32.2063 18.9567 32.1823 18.8607 32.1535C18.7647 32.1247 18.6831 32.1103 18.6207 32.1007C18.5583 32.0911 18.4479 32.0719 18.2895 32.0335C17.9919 31.9807 16.7007 31.9183 14.4207 31.8511C12.1407 31.7791 10.7631 31.7455 10.2879 31.7455C9.99031 31.7455 9.75031 31.5583 9.57271 31.1935C9.23671 30.4351 9.21271 29.5231 9.49111 28.4479C9.52471 28.2559 9.76471 28.1119 10.2063 28.0255C10.2591 27.9919 10.7871 27.9775 11.7903 27.9871C12.7935 27.9967 13.3215 28.0015 13.3743 28.0015C13.9359 27.9823 15.5679 27.9439 18.2559 27.8815C20.9487 27.8191 22.5231 27.7807 22.9839 27.7615C23.5311 27.7279 25.0047 27.6991 27.4047 27.6799C29.8047 27.6607 31.1487 27.6559 31.4319 27.6559C31.8207 27.6367 32.1279 27.8959 32.3535 28.4191C32.7231 29.1919 32.8047 29.9695 32.5935 30.7423C32.5215 31.0063 32.3103 31.1983 31.9599 31.3231C31.5711 31.4815 30.1983 31.5967 27.8415 31.6639C25.4847 31.7359 24.2511 31.7695 24.1455 31.7695L23.6943 31.8511H23.7039ZM16.8927 16.2223L25.2351 15.7711V12.6031C25.6047 12.5167 25.9983 12.4495 26.4207 12.4063C26.8431 12.3631 27.2031 12.3439 27.5007 12.3535C27.7983 12.3631 28.1967 12.3727 28.6911 12.3823C29.1855 12.3919 29.5455 12.3967 29.7711 12.3967C29.8959 12.3967 30.0255 12.4735 30.1695 12.6223C30.3087 12.7711 30.3999 12.9103 30.4335 13.0303C30.9087 15.1231 31.1823 16.5775 31.2543 17.3887C31.2879 17.6719 31.2879 17.9551 31.2543 18.2479C31.2207 18.5359 31.1631 18.9055 31.0815 19.3423C30.9999 19.7839 30.9519 20.0623 30.9375 20.1871C30.9039 20.3455 30.7071 21.4543 30.3567 23.5135C29.1231 23.6191 28.4751 23.6719 28.4031 23.6719C23.3535 23.8639 20.3583 23.9599 19.4271 23.9599C18.0351 23.9599 16.0287 23.8111 13.4079 23.5087C12.6879 23.4223 12.1071 23.1343 11.6799 22.6495C11.2479 22.1647 11.0319 21.5791 11.0319 20.8927L11.0031 17.9647C10.9839 17.5423 10.9359 16.9279 10.8591 16.1167C10.7775 15.3055 10.7295 14.7103 10.7151 14.3215C10.7151 14.1967 10.7391 14.0623 10.7967 13.9135C10.8495 13.7647 10.9215 13.6639 11.0079 13.6111C12.0975 13.0831 13.1487 12.9007 14.1519 13.0591C15.1215 13.1983 15.6399 13.2703 15.7071 13.2703C16.1487 13.2703 16.4511 13.3759 16.6191 13.5871C16.7871 13.7983 16.8783 14.1055 16.8975 14.5087V16.2271L16.8927 16.2223ZM17.2335 18.5167C17.2143 18.6031 17.1903 18.7471 17.1519 18.9391C17.1183 19.1311 17.0895 19.3087 17.0703 19.4671C17.0511 19.6255 17.0511 19.7839 17.0703 19.9423C17.0895 20.7343 17.1951 21.2239 17.3871 21.4063C17.5791 21.5935 18.0639 21.6847 18.8415 21.6847C20.9007 21.6511 22.6143 21.6031 23.9871 21.5551C24.7263 21.5359 25.2255 21.4351 25.4799 21.2527C25.7343 21.0655 25.9311 20.6767 26.0751 20.0767C26.2143 19.4623 26.1087 18.9439 25.7583 18.5311C25.4079 18.1183 24.8895 17.9263 24.1983 17.9647C23.7759 17.9839 21.4527 18.1663 17.2287 18.5167H17.2335Z" fill="white"/>
</svg>
