<svg width="878" height="290" viewBox="0 0 878 290" fill="none" xmlns="http://www.w3.org/2000/svg">
<path d="M844.266 132.402C848.952 123.632 851.62 113.61 851.62 102.961C851.62 68.2772 823.502 40.1588 788.818 40.1588C782.925 40.1588 777.241 40.9708 771.835 42.502C760.467 23.9652 739.982 11.5996 716.619 11.5996C680.822 11.5996 651.822 40.646 651.822 76.4436C651.822 84.61 653.33 92.4284 656.114 99.6204C628.227 105.629 607.324 130.476 607.324 160.196C607.324 179.15 615.839 196.156 629.271 207.5C628.668 210.864 628.343 214.344 628.343 217.894C628.343 251.024 655.209 277.866 688.315 277.866C697.758 277.866 706.667 275.685 714.601 271.811C723.487 282.9 737.175 290 752.487 290C771.418 290 787.843 279.188 795.871 263.343C799.281 263.876 802.807 264.132 806.403 264.132C845.797 264.132 877.743 232.208 877.743 192.792C877.743 167.318 864.38 144.93 844.243 132.356L844.266 132.402Z" fill="#578246"/>
<path d="M844.266 120.802C848.952 112.033 851.62 102.01 851.62 91.3616C851.62 56.6776 823.502 28.5592 788.818 28.5592C782.925 28.5592 777.241 29.3712 771.835 30.9024C760.467 12.3656 739.982 0 716.619 0C680.822 0 651.822 29.0464 651.822 64.844C651.822 73.0104 653.33 80.8288 656.114 88.0208C628.227 94.0296 607.324 118.877 607.324 148.596C607.324 167.55 615.839 184.556 629.271 195.901C628.668 199.265 628.343 202.745 628.343 206.294C628.343 239.424 655.209 266.266 688.315 266.266C697.758 266.266 706.667 264.086 714.601 260.211C723.487 271.301 737.175 278.4 752.487 278.4C771.418 278.4 787.843 267.589 795.871 251.743C799.281 252.277 802.807 252.532 806.403 252.532C845.797 252.532 877.743 220.609 877.743 181.192C877.743 155.718 864.38 133.33 844.243 120.756L844.266 120.802Z" fill="#99C08E"/>
<path d="M703.49 177.92C702.818 177.92 701.866 177.966 700.66 178.082C699.43 178.198 698.549 178.245 697.992 178.245C695.881 178.245 694.35 177.688 693.398 176.574C692.447 175.461 691.983 173.674 691.983 171.238C691.983 170.566 692.377 167.062 693.143 160.706C700.938 158.154 708.571 156.854 716.018 156.854C716.575 156.854 717.41 156.878 718.524 156.947C719.637 156.994 720.519 157.04 721.192 157.04L732.885 156.367C732.444 155.37 732.189 154.001 732.142 152.284C732.096 150.567 731.887 149.222 731.562 148.27C731.237 147.319 730.495 146.786 729.382 146.693C727.711 146.368 720.867 146.043 708.826 145.765C696.809 145.486 689.779 145.463 687.784 145.672C685.232 146.113 683.028 146.252 681.195 146.09C679.362 145.927 677.993 144.721 677.112 142.494C675.441 138.828 674.931 134.698 675.604 130.128C675.836 129.014 676.764 127.901 678.434 126.787C680.105 125.674 684.002 124.792 690.127 124.119C696.252 123.446 700.59 123.33 703.165 123.794H724.138C728.082 123.794 730.843 123.748 732.397 123.632C752.883 123.4 764.692 123.307 767.801 123.307C770.91 123.307 777.707 123.586 788.17 124.142C798.634 124.699 804.155 124.978 804.712 124.978C805.269 124.978 806.266 125.14 807.728 125.488C810.071 126.045 811.649 126.857 812.484 127.901C813.319 128.968 813.574 130.662 813.226 133.005C813.11 133.886 812.994 134.675 812.902 135.348C812.786 136.021 812.669 136.624 812.577 137.181C812.461 137.738 812.252 138.202 811.904 138.596C811.579 138.99 811.347 139.338 811.231 139.686C811.115 140.034 810.79 140.336 810.233 140.614C809.677 140.893 809.259 141.125 808.981 141.287C808.702 141.45 808.146 141.658 807.31 141.867C806.475 142.099 805.872 142.262 805.477 142.378C805.083 142.494 804.271 142.702 803.065 143.05C801.835 143.375 800.884 143.607 800.234 143.723C799.005 144.048 791.882 144.419 778.844 144.814C765.805 145.208 758.637 145.626 757.291 146.066C756.85 146.182 756.595 146.67 756.549 147.574C756.502 148.456 756.502 149.407 756.549 150.405C756.595 151.402 756.572 152.47 756.456 153.583C756.456 153.908 756.502 154.418 756.618 155.091C756.734 155.764 756.781 156.205 756.781 156.437C768.149 156.669 777.893 156.878 786.013 157.11C788.124 157.226 790.073 157.666 791.859 158.455C792.532 158.687 793.112 159.128 793.622 159.801C794.133 160.474 794.365 161.077 794.365 161.634V163.977C794.365 167.202 793.878 169.823 792.95 171.818C791.998 173.814 790.026 175.322 787.01 176.319C786.454 176.551 784.69 176.69 781.744 176.737C778.797 176.783 776.083 176.922 773.647 177.154C771.188 177.386 769.982 177.827 769.982 178.5C769.866 179.057 769.912 179.938 770.144 181.168C770.376 182.398 770.469 183.279 770.469 183.836C770.469 183.952 770.515 184.903 770.631 186.666C770.747 188.453 770.793 189.613 770.793 190.17L791.673 191.515C791.557 192.954 791.488 195.877 791.418 200.285C791.349 204.693 791.001 208.103 790.328 210.562C790.212 211.003 789.818 211.514 789.168 212.07C788.495 212.627 787.938 212.906 787.497 212.906C785.943 213.022 779.47 213.068 768.125 213.068C765.55 213.068 761.838 213.022 756.943 212.906C752.048 212.79 748.313 212.743 745.761 212.743C741.631 212.743 735.437 212.766 727.131 212.836C718.826 212.882 712.631 212.929 708.502 212.929H694.976C693.421 212.929 692.215 212.488 691.38 211.583C690.545 210.702 690.127 209.518 690.127 208.08C690.127 207.639 690.174 207.129 690.29 206.572C690.29 206.247 690.382 205.087 690.545 203.138C690.707 201.19 690.962 199.774 691.287 198.87C692.169 196.874 693.723 195.529 695.973 194.856C697.969 194.183 700.846 193.464 704.581 192.675C708.316 191.886 710.52 191.446 711.17 191.33C712.724 191.005 713.861 190.657 714.603 190.332C715.322 190.007 716.088 189.381 716.853 188.499C717.619 187.618 718.013 186.434 718.013 184.996C718.013 184.207 718.13 183.372 718.338 182.49C718.57 181.609 718.872 180.565 719.266 179.405C719.661 178.245 719.916 177.433 720.009 176.992C717.898 177.549 716.784 177.827 716.668 177.827C713.327 177.943 710.218 177.99 707.318 177.99H703.467L703.49 177.92ZM727.038 59.9943C739.288 59.1127 746.178 58.6023 747.756 58.4863C750.308 58.4863 753.162 59.3679 756.27 61.1543C756.943 61.4791 757.546 62.1751 758.103 63.2423C758.66 64.3095 758.938 65.2839 758.938 66.1655C758.822 73.0791 759.657 79.2503 761.444 84.7023C761.769 85.8159 764.483 87.5791 769.541 89.9687C774.598 92.3583 778.194 93.8431 780.305 94.3999C787.312 96.3023 796.174 98.9703 806.87 102.427C808.656 102.984 809.909 103.703 810.628 104.608C811.347 105.49 811.324 106.835 810.535 108.622C810.21 109.503 809.885 110.176 809.607 110.617C809.329 111.058 809.097 111.475 808.934 111.87C808.772 112.264 808.517 112.96 808.192 113.958C807.96 115.071 807.728 116.278 807.45 117.554C807.171 118.83 807.032 119.618 807.032 119.897C807.032 120.175 806.753 120.546 806.197 120.987C805.64 121.428 805.106 121.683 804.619 121.73C804.109 121.776 803.088 121.915 801.533 122.147C800.861 122.263 798.982 122.634 795.85 123.238C792.741 123.841 790.397 124.166 788.843 124.166C786.5 124.166 784.11 123.214 781.651 121.335C780.422 120.222 774.018 116.834 762.442 111.15C750.865 105.466 743 101.685 738.893 99.7823C736.782 98.9007 734.393 99.0631 731.702 100.293C726.458 102.52 720.125 105.698 712.654 109.805C709.197 111.707 705.323 113.424 701.054 114.978C696.762 116.533 693.166 117.206 690.29 116.974C688.062 116.742 686.554 116.301 685.789 115.628C685 114.955 684.443 113.517 684.118 111.29C683.794 109.387 683.283 107.438 682.61 105.443C682.054 103.541 681.729 102.079 681.613 101.012C681.497 99.9447 681.868 98.9471 682.703 97.9959C683.538 97.0447 684.35 96.3487 685.116 95.9079C685.881 95.4671 687.459 94.6783 689.802 93.5647C693.375 91.6623 699.361 88.8087 707.759 84.9575C716.158 81.1063 721.215 78.8095 722.885 78.0207C724.788 77.1391 726.064 75.9327 726.737 74.4247C727.409 72.9167 727.804 70.9911 727.897 68.6711C727.897 68.3463 727.618 65.4463 727.062 59.9943H727.038ZM737.061 188.778C737.061 190.448 737.942 191.283 739.729 191.283H740.402C741.167 191.283 742.884 191.167 745.505 190.958C748.127 190.726 750.145 190.564 751.607 190.448C751.932 190.332 752.35 190.123 752.86 189.775C753.37 189.45 753.602 189.172 753.602 188.94C753.718 186.829 753.765 184.764 753.765 182.769C753.765 180.217 753.718 177.642 753.602 175.09C753.602 174.858 753.301 174.579 752.674 174.254C752.071 173.93 751.537 173.744 751.097 173.744H750.934C749.821 173.86 745.854 174.417 739.079 175.414C737.85 182.978 737.177 187.154 737.084 187.942V188.778H737.061Z" fill="#578246"/>
<path d="M704.113 187.199C703.44 187.199 702.489 187.246 701.283 187.362C700.053 187.478 699.172 187.524 698.615 187.524C696.504 187.524 694.972 186.967 694.021 185.854C693.07 184.74 692.606 182.954 692.606 180.518C692.606 179.845 693.001 176.342 693.766 169.985C701.561 167.433 709.194 166.134 716.641 166.134C717.198 166.134 718.033 166.157 719.147 166.226C720.261 166.273 721.142 166.319 721.815 166.319L733.508 165.646C733.067 164.649 732.812 163.28 732.765 161.563C732.696 159.846 732.51 158.501 732.185 157.55C731.861 156.598 731.118 156.065 730.005 155.972C728.334 155.647 721.49 155.322 709.449 155.044C697.432 154.766 690.402 154.742 688.407 154.951C685.855 155.392 683.651 155.531 681.818 155.369C679.985 155.206 678.617 154 677.735 151.773C676.065 148.107 675.554 143.978 676.227 139.407C676.459 138.294 677.387 137.18 679.057 136.066C680.728 134.953 684.625 134.071 690.75 133.398C696.875 132.726 701.213 132.61 703.788 133.074H724.761C728.705 133.074 731.466 133.027 733.02 132.911C753.506 132.679 765.315 132.586 768.424 132.586C771.533 132.586 778.33 132.865 788.793 133.422C799.257 133.978 804.778 134.257 805.335 134.257C805.892 134.257 806.889 134.419 808.351 134.767C810.694 135.324 812.272 136.136 813.107 137.18C813.942 138.247 814.197 139.941 813.849 142.284C813.733 143.166 813.617 143.954 813.525 144.627C813.409 145.3 813.292 145.903 813.2 146.46C813.084 147.017 812.875 147.481 812.527 147.875C812.202 148.27 811.97 148.618 811.854 148.966C811.738 149.29 811.413 149.615 810.857 149.894C810.3 150.172 809.882 150.404 809.604 150.566C809.325 150.729 808.769 150.938 807.933 151.146C807.098 151.378 806.495 151.541 806.1 151.657C805.706 151.773 804.894 151.982 803.688 152.33C802.481 152.678 801.507 152.886 800.857 153.002C799.628 153.327 792.505 153.698 779.467 154.093C766.429 154.487 759.26 154.905 757.914 155.346C757.473 155.462 757.218 155.949 757.172 156.854C757.125 157.735 757.125 158.686 757.172 159.684C757.218 160.682 757.195 161.749 757.079 162.862C757.079 163.187 757.125 163.698 757.241 164.37C757.357 165.043 757.404 165.484 757.404 165.716C768.772 165.948 778.516 166.157 786.636 166.389C788.747 166.505 790.696 166.946 792.482 167.734C793.155 167.966 793.735 168.407 794.245 169.08C794.756 169.753 794.988 170.356 794.988 170.913V173.256C794.988 176.481 794.524 179.102 793.573 181.098C792.621 183.093 790.649 184.601 787.633 185.598C787.077 185.83 785.313 185.97 782.367 186.016C779.421 186.062 776.706 186.202 774.27 186.434C771.811 186.666 770.605 187.106 770.605 187.779C770.489 188.336 770.558 189.218 770.767 190.447C770.999 191.677 771.092 192.558 771.092 193.115C771.092 193.231 771.138 194.182 771.254 195.946C771.37 197.732 771.417 198.892 771.417 199.449L792.297 200.794C792.181 202.233 792.111 205.156 792.041 209.564C791.995 213.972 791.624 217.382 790.951 219.842C790.835 220.282 790.44 220.793 789.791 221.35C789.118 221.906 788.561 222.185 788.12 222.185C786.566 222.301 780.093 222.347 768.748 222.347C766.196 222.347 762.461 222.301 757.566 222.185C752.671 222.069 748.936 222.022 746.384 222.022C742.254 222.022 736.06 222.046 727.754 222.115C719.449 222.162 713.254 222.208 709.125 222.208H695.599C694.044 222.208 692.838 221.767 692.003 220.862C691.168 219.981 690.75 218.798 690.75 217.359C690.75 216.918 690.796 216.408 690.912 215.851C690.912 215.526 691.005 214.366 691.168 212.418C691.33 210.469 691.585 209.054 691.91 208.149C692.792 206.154 694.369 204.808 696.597 204.135C698.592 203.462 701.469 202.743 705.204 201.954C708.939 201.166 711.143 200.725 711.792 200.609C713.347 200.284 714.484 199.936 715.226 199.611C715.945 199.286 716.711 198.66 717.477 197.778C718.242 196.897 718.637 195.714 718.637 194.275C718.637 193.486 718.752 192.651 718.961 191.77C719.193 190.888 719.495 189.844 719.889 188.684C720.284 187.524 720.539 186.712 720.632 186.271C718.52 186.828 717.407 187.106 717.291 187.106C713.95 187.222 710.841 187.269 707.941 187.269H704.09L704.113 187.199ZM727.661 69.2736C739.911 68.392 746.801 67.8816 748.379 67.7656C750.931 67.7656 753.785 68.6472 756.893 70.4336C757.566 70.7584 758.169 71.4544 758.726 72.5216C759.283 73.5888 759.561 74.5632 759.561 75.4448C759.445 82.3584 760.281 88.5296 762.067 93.9816C762.392 95.0952 765.106 96.8584 770.164 99.248C775.221 101.638 778.817 103.122 780.928 103.679C787.935 105.582 796.797 108.25 807.493 111.706C809.279 112.263 810.532 112.982 811.251 113.887C811.97 114.769 811.947 116.114 811.158 117.901C810.833 118.782 810.508 119.455 810.23 119.896C809.952 120.337 809.72 120.754 809.557 121.149C809.395 121.543 809.14 122.239 808.815 123.237C808.583 124.35 808.328 125.557 808.073 126.833C807.794 128.109 807.655 128.898 807.655 129.176C807.655 129.454 807.376 129.826 806.82 130.266C806.263 130.707 805.729 130.962 805.242 131.009C804.732 131.055 803.711 131.194 802.157 131.426C801.484 131.542 799.581 131.914 796.473 132.517C793.364 133.12 791.021 133.445 789.466 133.445C787.123 133.445 784.733 132.494 782.274 130.614C781.045 129.501 774.641 126.114 763.065 120.43C751.488 114.746 743.623 110.964 739.517 109.062C737.405 108.18 735.016 108.342 732.325 109.572C727.081 111.799 720.748 114.978 713.277 119.084C709.821 120.986 705.946 122.703 701.677 124.258C697.385 125.812 693.789 126.485 690.912 126.253C688.685 126.021 687.177 125.58 686.412 124.907C685.623 124.234 685.066 122.796 684.741 120.569C684.416 118.666 683.906 116.718 683.233 114.722C682.676 112.82 682.352 111.358 682.236 110.291C682.12 109.224 682.491 108.226 683.326 107.275C684.161 106.324 684.973 105.628 685.739 105.187C686.528 104.746 688.082 103.958 690.425 102.844C693.998 100.942 699.984 98.088 708.382 94.2368C716.78 90.3856 721.838 88.0888 723.508 87.3C725.411 86.4184 726.687 85.212 727.36 83.704C728.032 82.196 728.427 80.2704 728.52 77.9504C728.52 77.6256 728.241 74.7256 727.685 69.2736H727.661ZM737.684 198.057C737.684 199.727 738.565 200.562 740.352 200.562H741.025C741.813 200.562 743.507 200.446 746.128 200.238C748.75 200.006 750.768 199.843 752.23 199.727C752.555 199.611 752.973 199.402 753.483 199.054C753.993 198.706 754.225 198.451 754.225 198.219C754.341 196.108 754.388 194.043 754.388 192.048C754.388 189.496 754.341 186.921 754.225 184.369C754.225 184.137 753.924 183.858 753.297 183.534C752.671 183.209 752.16 183.023 751.72 183.023H751.557C750.444 183.139 746.5 183.696 739.702 184.694C738.472 192.257 737.8 196.433 737.707 197.222V198.057H737.684Z" fill="white"/>
<path d="M99.1767 46.538C105.07 46.6772 113.143 46.422 121.774 46.538C140.125 46.8396 183.602 46.3988 192.232 80.4332C202.301 120.175 194.158 204.716 190.306 218.775C186.478 232.834 179.774 255.199 144.95 255.199H62.1959C56.4423 255.199 12.3623 252.972 4.6831 210.794C-2.9729 168.64 0.855101 110.5 1.7367 97.8796C2.6183 85.282 5.0079 50.4356 47.8119 47.8604C74.3991 46.2828 88.5279 46.2828 99.1767 46.538Z" fill="#BC3C6A"/>
<path d="M99.1767 34.9389C105.07 35.0781 113.143 34.8229 121.774 34.9389C140.125 35.2405 183.602 34.7997 192.232 68.8341C202.301 108.576 194.158 193.117 190.306 207.176C186.478 221.235 179.774 243.6 144.95 243.6H62.1959C56.4423 243.6 12.3623 241.373 4.6831 199.195C-2.9729 157.04 0.855101 98.9013 1.7367 86.2805C2.6183 73.6829 5.0079 38.8365 47.8119 36.2613C74.3991 34.6837 88.5279 34.6837 99.1767 34.9389Z" fill="#F885A7"/>
<path d="M91.1258 133.261C90.9634 131.22 90.8938 129.456 90.9402 127.972C90.9866 126.487 91.4042 125.234 92.2162 124.213C93.0282 123.192 94.3274 122.473 96.1138 122.032C100.035 121.174 102.285 120.756 102.888 120.756C104.93 120.594 106.531 120.594 107.667 120.756C108.827 120.919 109.616 121.406 110.08 122.218C110.544 123.03 110.962 124.584 111.287 126.881C111.379 127.044 111.403 127.74 111.403 128.923C111.403 130.106 111.403 131.243 111.472 132.31C111.519 133.377 111.611 133.911 111.797 133.911C114.001 133.911 119.059 134.05 126.97 134.352C134.881 134.653 139.892 134.792 142.027 134.792L152.861 133.772C153.116 133.864 153.487 134.05 153.951 134.352C154.415 134.653 154.995 135.256 155.668 136.138C156.341 137.043 156.596 137.994 156.434 139.015C156.341 139.525 155.784 142.889 154.787 149.084C153.603 149.176 152.954 149.223 152.861 149.223C152.443 149.223 137.503 149.06 108.085 148.712C106.461 148.712 102.099 148.828 94.9306 149.037C87.785 149.246 83.6554 149.362 82.565 149.362C80.5234 149.455 75.3266 149.408 66.9978 149.223C58.669 149.06 53.5186 148.921 51.5466 148.828C51.0362 148.828 49.8066 148.921 47.8578 149.084C45.909 149.246 44.6562 149.339 44.1458 149.339C43.3802 149.339 42.7538 149.269 42.2434 149.153C41.733 149.014 41.3618 148.759 41.153 148.318C40.9442 147.9 40.805 147.529 40.7586 147.228C40.7122 146.926 40.6658 146.323 40.6426 145.372C40.5962 144.444 40.573 143.701 40.573 143.191C40.4106 141.66 40.4106 139.456 40.573 136.556C40.6658 135.024 41.4314 134.259 42.8698 134.259C45.0042 134.166 51.245 134.212 61.6154 134.398C71.9858 134.56 78.4122 134.607 80.8946 134.514C81.9154 134.514 85.3258 134.096 91.1026 133.238L91.1258 133.261ZM56.1634 86.3044C56.8362 86.2116 57.7642 86.026 58.901 85.7244C60.061 85.4228 61.0586 85.214 61.8938 85.0748C62.7522 84.9588 63.5874 84.8428 64.4458 84.75C79.3402 84.2396 90.8706 83.9844 99.037 83.9844C108.317 83.9844 118.223 84.286 128.779 84.866C131.749 84.866 133.582 84.9356 134.255 85.0516C134.927 85.1908 135.879 85.3764 137.062 85.6316C138.245 85.8868 139.173 86.2812 139.799 86.838C140.449 87.3948 140.89 88.0908 141.145 88.9492C141.238 89.2972 141.354 89.7148 141.539 90.2252C141.887 91.594 142.096 92.638 142.166 93.4268C142.259 94.3548 142.328 95.306 142.421 96.234C142.769 96.3964 142.862 99.9692 142.746 106.952C142.607 113.936 142.56 117.508 142.56 117.671C142.653 120.223 142.143 122.102 141.029 123.285C139.915 124.468 138.129 125.118 135.67 125.211C134.904 125.211 133.791 125.141 132.352 125.025C130.914 124.886 129.847 124.84 129.151 124.84C125.485 124.932 123.583 120.153 123.397 110.548C123.397 107.486 123.003 105.607 122.191 104.934C121.379 104.261 119.523 103.82 116.646 103.658C116.228 103.658 115.88 103.612 115.625 103.519C108.224 103.101 103.677 102.892 101.96 102.892C89.293 102.637 77.2058 102.591 65.7218 102.753H62.149C61.3834 102.753 60.6178 102.637 59.8522 102.428C59.0866 102.22 58.5762 102.08 58.321 102.057C58.0658 102.011 57.8106 101.663 57.5554 101.036C57.3002 100.41 57.161 99.9228 57.161 99.6444C57.161 99.366 57.1146 98.6004 57.045 97.4172C56.9522 96.234 56.8826 95.2364 56.7898 94.4708C56.3722 89.1116 56.1634 86.3972 56.1634 86.3044ZM94.6986 152.656C99.6402 152.656 105.417 153.051 112.052 153.863C118.687 154.675 124.302 155.719 128.895 156.995C136.714 159.292 141.052 163.375 141.911 169.244C142.166 170.776 142.305 172.191 142.305 173.467C142.305 179.174 140.055 183.721 135.531 187.108C132.468 189.405 129.939 191.215 127.944 192.537C125.949 193.86 123.42 195.112 120.358 196.296C117.295 197.479 114.233 198.128 111.171 198.221C109.987 198.221 106.902 198.36 101.914 198.662C96.949 198.964 93.6082 199.103 91.8914 199.103C89.5018 199.103 87.3906 198.94 85.5114 198.592C85.0938 198.592 84.4906 198.5 83.725 198.337C80.1522 197.734 77.4378 197.247 75.5586 196.876C73.6794 196.504 71.4058 195.716 68.7378 194.509C66.0466 193.326 63.773 191.795 61.917 189.916C58.5066 186.598 56.813 183.489 56.813 180.589C56.813 174.627 57.6714 170.219 59.365 167.319C64.121 159.315 73.9114 154.559 88.713 153.028C90.6618 152.772 92.6802 152.633 94.6986 152.633V152.656ZM113.444 182.376C115.579 182.376 117.388 181.517 118.873 179.824C120.358 178.13 121.1 176.042 121.1 173.56C121.1 169.987 119.151 167.783 115.231 166.924C111.055 166.066 102.772 165.648 90.337 165.648H90.221C89.0378 165.648 87.9938 165.857 87.089 166.275C86.2074 166.692 85.465 167.365 84.9314 168.247C84.3746 169.128 84.0034 169.917 83.7714 170.613C83.5626 171.286 83.2842 172.26 82.9362 173.536C82.7738 174.14 82.681 174.696 82.681 175.207C82.681 176.576 83.1682 177.666 84.1426 178.524C85.117 179.383 86.3234 179.916 87.785 180.195C89.2234 180.543 91.1954 180.821 93.6546 181.076C96.1138 181.332 98.2946 181.494 100.151 181.587C102.03 181.68 104.419 181.796 107.366 181.958C110.289 182.12 112.191 182.26 113.05 182.352H113.444V182.376Z" fill="#BC3C6A"/>
<path d="M91.1258 140.221C90.9634 138.18 90.8938 136.416 90.9402 134.932C90.9866 133.447 91.4042 132.194 92.2162 131.173C93.0282 130.152 94.3274 129.433 96.1138 128.992C100.035 128.134 102.285 127.716 102.888 127.716C104.93 127.554 106.531 127.554 107.667 127.716C108.827 127.879 109.616 128.366 110.08 129.178C110.544 129.99 110.962 131.544 111.287 133.841C111.379 134.004 111.403 134.7 111.403 135.883C111.403 137.066 111.403 138.203 111.472 139.27C111.519 140.337 111.611 140.871 111.797 140.871C114.001 140.871 119.059 141.01 126.97 141.312C134.881 141.613 139.892 141.752 142.027 141.752L152.861 140.732C153.116 140.824 153.487 141.01 153.951 141.312C154.415 141.613 154.995 142.216 155.668 143.098C156.341 144.003 156.596 144.954 156.434 145.975C156.341 146.485 155.784 149.849 154.787 156.044C153.603 156.136 152.954 156.183 152.861 156.183C152.443 156.183 137.503 156.02 108.085 155.672C106.461 155.672 102.099 155.788 94.9306 155.997C87.785 156.206 83.6554 156.322 82.565 156.322C80.5234 156.415 75.3266 156.368 66.9978 156.183C58.669 156.02 53.5186 155.881 51.5466 155.788C51.0362 155.788 49.8066 155.881 47.8578 156.044C45.909 156.206 44.6562 156.299 44.1458 156.299C43.3802 156.299 42.7538 156.229 42.2434 156.113C41.733 155.974 41.3618 155.719 41.153 155.278C40.9442 154.86 40.805 154.489 40.7586 154.188C40.7122 153.886 40.6658 153.283 40.6426 152.332C40.5962 151.404 40.573 150.661 40.573 150.151C40.4106 148.62 40.4106 146.416 40.573 143.516C40.6658 141.984 41.4314 141.219 42.8698 141.219C45.0042 141.126 51.245 141.172 61.6154 141.358C71.9858 141.52 78.4122 141.567 80.8946 141.474C81.9154 141.474 85.3258 141.056 91.1026 140.198L91.1258 140.221ZM56.1634 93.2643C56.8362 93.1715 57.7642 92.9859 58.901 92.6843C60.061 92.3827 61.0586 92.1739 61.8938 92.0347C62.7522 91.9187 63.5874 91.8027 64.4458 91.7099C79.3402 91.1995 90.8706 90.9443 99.037 90.9443C108.317 90.9443 118.223 91.2459 128.779 91.8259C131.749 91.8259 133.582 91.8955 134.255 92.0115C134.927 92.1507 135.879 92.3363 137.062 92.5915C138.245 92.8467 139.173 93.2411 139.799 93.7979C140.449 94.3547 140.89 95.0507 141.145 95.9091C141.238 96.2571 141.354 96.6747 141.539 97.1851C141.887 98.5539 142.096 99.5979 142.166 100.387C142.259 101.315 142.328 102.266 142.421 103.194C142.769 103.356 142.862 106.929 142.746 113.912C142.607 120.896 142.56 124.468 142.56 124.631C142.653 127.183 142.143 129.062 141.029 130.245C139.915 131.428 138.129 132.078 135.67 132.171C134.904 132.171 133.791 132.101 132.352 131.985C130.914 131.846 129.847 131.8 129.151 131.8C125.485 131.892 123.583 127.113 123.397 117.508C123.397 114.446 123.003 112.567 122.191 111.894C121.379 111.221 119.523 110.78 116.646 110.618C116.228 110.618 115.88 110.572 115.625 110.479C108.224 110.061 103.677 109.852 101.96 109.852C89.293 109.597 77.2058 109.551 65.7218 109.713H62.149C61.3834 109.713 60.6178 109.597 59.8522 109.388C59.0866 109.18 58.5762 109.04 58.321 109.017C58.0658 108.971 57.8106 108.623 57.5554 107.996C57.3002 107.37 57.161 106.883 57.161 106.604C57.161 106.326 57.1146 105.56 57.045 104.377C56.9522 103.194 56.8826 102.196 56.7898 101.431C56.3722 96.0715 56.1634 93.3571 56.1634 93.2643ZM94.6986 159.616C99.6402 159.616 105.417 160.011 112.052 160.823C118.687 161.635 124.302 162.679 128.895 163.955C136.714 166.252 141.052 170.335 141.911 176.204C142.166 177.736 142.305 179.151 142.305 180.427C142.305 186.134 140.055 190.681 135.531 194.068C132.468 196.365 129.939 198.175 127.944 199.497C125.949 200.82 123.42 202.072 120.358 203.256C117.295 204.439 114.233 205.088 111.171 205.181C109.987 205.181 106.902 205.32 101.914 205.622C96.949 205.924 93.6082 206.063 91.8914 206.063C89.5018 206.063 87.3906 205.9 85.5114 205.552C85.0938 205.552 84.4906 205.46 83.725 205.297C80.1522 204.694 77.4378 204.207 75.5586 203.836C73.6794 203.464 71.4058 202.676 68.7378 201.469C66.0466 200.286 63.773 198.755 61.917 196.876C58.5066 193.558 56.813 190.449 56.813 187.549C56.813 181.587 57.6714 177.179 59.365 174.279C64.121 166.275 73.9114 161.519 88.713 159.988C90.6618 159.732 92.6802 159.593 94.6986 159.593V159.616ZM113.444 189.336C115.579 189.336 117.388 188.477 118.873 186.784C120.358 185.09 121.1 183.002 121.1 180.52C121.1 176.947 119.151 174.743 115.231 173.884C111.055 173.026 102.772 172.608 90.337 172.608H90.221C89.0378 172.608 87.9938 172.817 87.089 173.235C86.2074 173.652 85.465 174.325 84.9314 175.207C84.3746 176.088 84.0034 176.877 83.7714 177.573C83.5626 178.246 83.2842 179.22 82.9362 180.496C82.7738 181.1 82.681 181.656 82.681 182.167C82.681 183.536 83.1682 184.626 84.1426 185.484C85.117 186.343 86.3234 186.876 87.785 187.155C89.2234 187.503 91.1954 187.781 93.6546 188.036C96.1138 188.292 98.2946 188.454 100.151 188.547C102.03 188.64 104.419 188.756 107.366 188.918C110.289 189.08 112.191 189.22 113.05 189.312H113.444V189.336Z" fill="white"/>
<path d="M291.552 47.1888C287.77 47.1888 273.804 47.7688 270.045 48.024C256.589 48.9984 217.984 54.7984 216.453 89.204C214.597 130.894 215.827 197.455 221.116 215.505C226.406 233.554 243.597 249.47 272.435 252.207C296.934 254.527 354.563 259.678 373.842 246.918C399.548 229.912 404.953 217.686 408.062 174.139C411.171 130.593 425.16 69.2984 383.168 54.6824C349.227 42.8736 297.305 47.1888 291.528 47.1888H291.552Z" fill="#418099"/>
<path d="M291.552 35.5892C287.77 35.5892 273.804 36.1692 270.045 36.4244C256.589 37.3988 217.984 43.1988 216.453 77.6044C214.597 119.295 215.827 185.856 221.116 203.905C226.406 221.955 243.597 237.87 272.435 240.608C296.934 242.928 354.563 248.078 373.842 235.318C399.548 218.312 404.953 206.086 408.062 162.54C411.171 118.993 425.16 57.6988 383.168 43.0828C349.227 31.274 297.305 35.5892 291.528 35.5892H291.552Z" fill="#97CFDB"/>
<path d="M327.236 180.82C326.981 182.189 326.61 184.277 326.146 187.131C325.682 189.984 325.357 191.748 325.194 192.42C324.846 194.3 323.756 195.39 321.877 195.738C319.998 196.086 315.613 196.341 308.722 196.504C307.029 196.596 306.008 195.576 305.66 193.441V188.082C305.66 187.479 305.66 186.876 305.73 186.226C305.799 185.576 305.73 185.089 305.66 184.764C305.567 184.416 305.544 184.115 305.544 183.813C305.544 183.512 305.428 183.28 305.219 183.117C305.01 182.955 304.825 182.792 304.709 182.676C304.593 182.537 304.291 182.421 303.827 182.282C303.363 182.143 302.969 182.073 302.667 182.027C302.366 181.98 301.832 181.888 301.066 181.702C299.628 181.447 293.387 181.145 282.367 180.82C271.347 180.472 264.689 180.31 262.392 180.31C260.954 180.31 259.794 179.405 258.935 177.642C257.311 173.976 257.195 169.568 258.541 164.372C258.703 163.444 259.863 162.748 261.998 162.33C262.253 162.168 264.805 162.098 269.654 162.144C274.502 162.191 277.054 162.214 277.31 162.214C280.024 162.121 287.912 161.936 300.904 161.634C313.919 161.332 321.529 161.147 323.756 161.054C326.401 160.892 333.523 160.752 345.123 160.66C356.723 160.567 363.219 160.544 364.588 160.544C366.467 160.451 367.952 161.704 369.042 164.232C370.829 167.968 371.223 171.726 370.202 175.461C369.854 176.737 368.834 177.665 367.14 178.268C365.261 179.034 358.626 179.591 347.234 179.916C335.843 180.264 329.881 180.426 329.37 180.426L327.19 180.82H327.236ZM294.315 105.281L334.637 103.1V87.7884C336.423 87.3708 338.326 87.046 340.367 86.8372C342.409 86.6284 344.149 86.5356 345.587 86.582C347.026 86.6284 348.951 86.6748 351.341 86.7212C353.73 86.7676 355.47 86.7908 356.561 86.7908C357.164 86.7908 357.79 87.162 358.486 87.8812C359.159 88.6004 359.6 89.2732 359.762 89.8532C362.059 99.9684 363.382 106.998 363.73 110.919C363.892 112.288 363.892 113.656 363.73 115.072C363.567 116.464 363.289 118.25 362.894 120.361C362.5 122.496 362.268 123.841 362.198 124.444C362.036 125.21 361.085 130.569 359.391 140.522C353.429 141.032 350.297 141.288 349.949 141.288C325.542 142.216 311.066 142.68 306.565 142.68C299.837 142.68 290.139 141.96 277.472 140.499C273.992 140.081 271.185 138.689 269.12 136.346C267.032 134.003 265.988 131.172 265.988 127.855L265.849 113.703C265.756 111.661 265.524 108.692 265.153 104.771C264.758 100.85 264.526 97.9732 264.457 96.094C264.457 95.4908 264.573 94.8412 264.851 94.122C265.106 93.4028 265.454 92.9156 265.872 92.6604C271.138 90.1084 276.219 89.2268 281.068 89.9924C285.754 90.6652 288.26 91.0132 288.585 91.0132C290.719 91.0132 292.181 91.5236 292.993 92.5444C293.805 93.5652 294.246 95.05 294.338 96.9988V105.304L294.315 105.281ZM295.962 116.371C295.87 116.788 295.754 117.484 295.568 118.412C295.406 119.34 295.266 120.199 295.174 120.964C295.081 121.73 295.081 122.496 295.174 123.261C295.266 127.089 295.777 129.456 296.705 130.337C297.633 131.242 299.976 131.683 303.734 131.683C313.687 131.52 321.97 131.288 328.605 131.056C332.178 130.964 334.59 130.476 335.82 129.595C337.05 128.69 338.001 126.811 338.697 123.911C339.37 120.941 338.859 118.436 337.166 116.44C335.472 114.445 332.966 113.517 329.626 113.703C327.584 113.796 316.355 114.677 295.939 116.371H295.962Z" fill="#418099"/>
<path d="M327.236 187.78C326.981 189.149 326.61 191.237 326.146 194.091C325.682 196.944 325.357 198.708 325.194 199.38C324.846 201.26 323.756 202.35 321.877 202.698C319.998 203.046 315.613 203.301 308.722 203.464C307.029 203.556 306.008 202.536 305.66 200.401V195.042C305.66 194.439 305.66 193.836 305.73 193.186C305.799 192.536 305.73 192.049 305.66 191.724C305.567 191.376 305.544 191.075 305.544 190.773C305.544 190.472 305.428 190.24 305.219 190.077C305.01 189.915 304.825 189.752 304.709 189.636C304.593 189.497 304.291 189.381 303.827 189.242C303.363 189.103 302.969 189.033 302.667 188.987C302.366 188.94 301.832 188.848 301.066 188.662C299.628 188.407 293.387 188.105 282.367 187.78C271.347 187.432 264.689 187.27 262.392 187.27C260.954 187.27 259.794 186.365 258.935 184.602C257.311 180.936 257.195 176.528 258.541 171.332C258.703 170.404 259.863 169.708 261.998 169.29C262.253 169.128 264.805 169.058 269.654 169.104C274.502 169.151 277.054 169.174 277.31 169.174C280.024 169.081 287.912 168.896 300.904 168.594C313.919 168.292 321.529 168.107 323.756 168.014C326.401 167.852 333.523 167.712 345.123 167.62C356.723 167.527 363.219 167.504 364.588 167.504C366.467 167.411 367.952 168.664 369.042 171.192C370.829 174.928 371.223 178.686 370.202 182.421C369.854 183.697 368.834 184.625 367.14 185.228C365.261 185.994 358.626 186.551 347.234 186.876C335.843 187.224 329.881 187.386 329.37 187.386L327.19 187.78H327.236ZM294.315 112.241L334.637 110.06V94.7484C336.423 94.3308 338.326 94.006 340.367 93.7972C342.409 93.5884 344.149 93.4956 345.587 93.542C347.026 93.5884 348.951 93.6348 351.341 93.6812C353.73 93.7276 355.47 93.7508 356.561 93.7508C357.164 93.7508 357.79 94.122 358.486 94.8412C359.159 95.5604 359.6 96.2332 359.762 96.8132C362.059 106.928 363.382 113.958 363.73 117.879C363.892 119.248 363.892 120.616 363.73 122.032C363.567 123.424 363.289 125.21 362.894 127.321C362.5 129.456 362.268 130.801 362.198 131.404C362.036 132.17 361.085 137.529 359.391 147.482C353.429 147.992 350.297 148.248 349.949 148.248C325.542 149.176 311.066 149.64 306.565 149.64C299.837 149.64 290.139 148.92 277.472 147.459C273.992 147.041 271.185 145.649 269.12 143.306C267.032 140.963 265.988 138.132 265.988 134.815L265.849 120.663C265.756 118.621 265.524 115.652 265.153 111.731C264.758 107.81 264.526 104.933 264.457 103.054C264.457 102.451 264.573 101.801 264.851 101.082C265.106 100.363 265.454 99.8756 265.872 99.6204C271.138 97.0684 276.219 96.1868 281.068 96.9524C285.754 97.6252 288.26 97.9732 288.585 97.9732C290.719 97.9732 292.181 98.4836 292.993 99.5044C293.805 100.525 294.246 102.01 294.338 103.959V112.264L294.315 112.241ZM295.962 123.331C295.87 123.748 295.754 124.444 295.568 125.372C295.406 126.3 295.266 127.159 295.174 127.924C295.081 128.69 295.081 129.456 295.174 130.221C295.266 134.049 295.777 136.416 296.705 137.297C297.633 138.202 299.976 138.643 303.734 138.643C313.687 138.48 321.97 138.248 328.605 138.016C332.178 137.924 334.59 137.436 335.82 136.555C337.05 135.65 338.001 133.771 338.697 130.871C339.37 127.901 338.859 125.396 337.166 123.4C335.472 121.405 332.966 120.477 329.626 120.663C327.584 120.756 316.355 121.637 295.939 123.331H295.962Z" fill="white"/>
<path d="M458.661 101.917C458.661 101.917 434.301 111.963 432.074 146.554C429.847 181.145 433.187 215.899 439.15 230.515C445.112 245.131 457.014 254.805 481.188 254.805C505.363 254.805 520.257 253.506 543.318 254.805C557.145 255.594 574.568 257.404 583.871 235.828C593.174 214.252 587.955 144.698 579.974 120.13C574.707 103.959 562.829 91.1527 521.394 92.9623C483.067 94.6327 474.159 94.6327 458.707 101.894L458.661 101.917Z" fill="#C18E1B"/>
<path d="M458.661 90.3179C458.661 90.3179 434.301 100.363 432.074 134.955C429.847 169.546 433.187 204.299 439.15 218.915C445.112 233.531 457.014 243.206 481.188 243.206C505.363 243.206 520.257 241.907 543.318 243.206C557.145 243.995 574.568 245.804 583.871 224.228C593.174 202.652 587.955 133.099 579.974 108.53C574.707 92.3595 562.829 79.5531 521.394 81.3627C483.067 83.0331 474.159 83.0331 458.707 90.2947L458.661 90.3179Z" fill="#FED054"/>
<path d="M488.241 119.016C488.821 119.086 489.726 119.202 490.979 119.411C492.209 119.596 493.322 119.782 494.297 119.944C495.271 120.107 496.176 120.316 497.034 120.571C497.289 120.71 498.264 121.035 499.911 121.545C501.558 122.056 502.695 122.427 503.275 122.612C503.855 122.798 504.783 123.123 506.059 123.587C507.335 124.051 508.402 124.492 509.33 124.909C510.235 125.327 511.14 125.768 512.068 126.232C515.455 128.111 517.636 130.64 518.633 133.841C519.631 137.02 519.515 140.407 518.285 143.98C516.661 149.316 514.713 154.234 512.439 158.781C511.859 159.895 511.024 160.916 509.957 161.89C508.889 162.864 507.799 163.537 506.685 163.932C498.821 166.669 492.881 168.177 488.845 168.502C482.604 169.012 477.569 167.504 473.741 163.932C471.468 161.797 469.867 158.34 468.962 153.608C466.758 141.915 469.589 131.985 477.43 123.796C480.353 120.733 483.949 119.156 488.241 119.016ZM530.813 188.384C520.884 189.684 515.548 190.403 514.829 190.519C510.931 191.099 503.646 191.563 492.951 191.888C482.256 192.212 474.901 192.073 470.888 191.493C470.493 191.424 470.099 191.192 469.658 190.82C469.241 190.426 469.032 190.078 469.032 189.753C468.777 185.995 468.777 182.932 469.032 180.589C469.171 178.965 469.844 177.04 471.073 174.836C475.296 173.676 478.219 173.026 479.843 172.887C481.003 172.701 486.571 172.771 496.547 173.119C506.523 173.467 511.998 173.652 512.973 173.652C514.202 173.583 516.058 173.536 518.517 173.513C520.977 173.49 522.833 173.444 524.062 173.374L531.069 172.701C531.533 161.658 531.788 155.556 531.857 154.373L533.412 118.019C533.597 117.764 533.922 117.462 534.386 117.137C534.85 116.812 535.848 116.348 537.402 115.768C538.957 115.188 540.581 114.817 542.274 114.701C543.109 114.632 544.2 114.701 545.499 114.84C546.798 115.003 547.912 115.212 548.817 115.467L550.185 115.768C550.441 116.024 550.789 116.348 551.206 116.696C551.624 117.044 552.111 117.764 552.668 118.831C553.225 119.898 553.364 120.896 553.109 121.8C552.204 124.538 551.508 133.632 551.067 149.13C550.603 164.628 550.325 172.864 550.185 173.838C550.116 174.627 550.093 176.158 550.139 178.455C550.162 180.752 550.046 182.283 549.791 182.979C549.605 183.768 549.536 186.041 549.652 189.8C549.768 193.558 549.652 195.785 549.397 196.435C548.817 198.244 548.005 199.497 546.961 200.147C545.917 200.796 544.385 201.121 542.39 201.121C539.073 201.052 536.613 200.889 534.989 200.634C532.716 200.17 531.718 198.871 531.973 196.736C532.043 196.226 531.857 194.904 531.44 192.792C531.022 190.681 530.813 189.196 530.813 188.361V188.384ZM501.001 143.956C501.001 141.103 500.445 139.061 499.354 137.808C498.241 136.579 496.454 135.952 493.995 135.952C491.141 135.952 488.613 137.066 486.385 139.316C484.181 141.567 483.045 144.142 482.975 147.065C482.975 148.689 483.973 150.406 485.991 152.192C488.009 153.979 489.912 154.768 491.745 154.582C494.157 154.327 496.292 153.213 498.171 151.264C500.05 149.316 501.001 146.88 501.001 143.956Z" fill="#C18E1B"/>
<path d="M488.241 125.976C488.821 126.045 489.726 126.161 490.979 126.37C492.209 126.556 493.322 126.741 494.297 126.904C495.271 127.066 496.176 127.275 497.034 127.53C497.289 127.669 498.264 127.994 499.911 128.505C501.558 129.015 502.695 129.386 503.275 129.572C503.855 129.757 504.783 130.082 506.059 130.546C507.335 131.01 508.402 131.451 509.33 131.869C510.235 132.286 511.14 132.727 512.068 133.191C515.455 135.07 517.636 137.599 518.633 140.801C519.631 143.979 519.515 147.366 518.285 150.939C516.661 156.275 514.713 161.193 512.439 165.741C511.859 166.854 511.024 167.875 509.957 168.849C508.889 169.824 507.799 170.497 506.685 170.891C498.821 173.629 492.881 175.137 488.845 175.461C482.604 175.972 477.569 174.464 473.741 170.891C471.468 168.757 469.867 165.3 468.962 160.567C466.758 148.874 469.589 138.945 477.43 130.755C480.353 127.693 483.949 126.115 488.241 125.976ZM530.813 195.344C520.884 196.643 515.548 197.362 514.829 197.478C510.931 198.058 503.646 198.522 492.951 198.847C482.256 199.172 474.901 199.033 470.888 198.453C470.493 198.383 470.099 198.151 469.658 197.78C469.241 197.385 469.032 197.037 469.032 196.713C468.777 192.954 468.777 189.892 469.032 187.549C469.171 185.925 469.844 183.999 471.073 181.795C475.296 180.635 478.219 179.985 479.843 179.846C481.003 179.661 486.571 179.73 496.547 180.078C506.523 180.426 511.998 180.612 512.973 180.612C514.202 180.542 516.058 180.496 518.517 180.473C520.977 180.449 522.833 180.403 524.062 180.333L531.069 179.661C531.533 168.617 531.788 162.516 531.857 161.333L533.412 124.978C533.597 124.723 533.922 124.421 534.386 124.097C534.85 123.772 535.848 123.308 537.402 122.728C538.957 122.148 540.581 121.777 542.274 121.661C543.109 121.591 544.2 121.661 545.499 121.8C546.798 121.962 547.912 122.171 548.817 122.426L550.185 122.728C550.441 122.983 550.789 123.308 551.206 123.656C551.624 124.004 552.111 124.723 552.668 125.79C553.225 126.857 553.364 127.855 553.109 128.76C552.204 131.497 551.508 140.592 551.067 156.089C550.603 171.587 550.325 179.823 550.185 180.797C550.116 181.586 550.093 183.117 550.139 185.414C550.162 187.711 550.046 189.242 549.791 189.938C549.605 190.727 549.536 193.001 549.652 196.759C549.768 200.517 549.652 202.745 549.397 203.394C548.817 205.204 548.005 206.457 546.961 207.106C545.917 207.756 544.385 208.081 542.39 208.081C539.073 208.011 536.613 207.849 534.989 207.593C532.716 207.129 531.718 205.83 531.973 203.696C532.043 203.185 531.857 201.863 531.44 199.752C531.022 197.641 530.813 196.156 530.813 195.321V195.344ZM501.001 150.916C501.001 148.062 500.445 146.021 499.354 144.768C498.241 143.538 496.454 142.912 493.995 142.912C491.141 142.912 488.613 144.025 486.385 146.276C484.181 148.526 483.045 151.101 482.975 154.025C482.975 155.649 483.973 157.365 485.991 159.152C488.009 160.938 489.912 161.727 491.745 161.541C494.157 161.286 496.292 160.173 498.171 158.224C500.05 156.275 501.001 153.839 501.001 150.916Z" fill="white"/>
</svg>
