<svg xmlns="http://www.w3.org/2000/svg" width="57" height="58" viewBox="0 0 57 58" fill="none">
<path d="M49.6757 24.9936C50.6453 23.1792 51.1973 21.1056 51.1973 18.9024C51.1973 11.7264 45.3797 5.9088 38.2037 5.9088C36.9845 5.9088 35.8085 6.0768 34.6901 6.3936C32.3381 2.5584 28.0997 0 23.2661 0C15.8597 0 9.85972 6.0096 9.85972 13.416C9.85972 15.1056 10.1717 16.7232 10.7477 18.2112C4.97812 19.4544 0.65332 24.5952 0.65332 30.744C0.65332 34.6656 2.41492 38.184 5.19412 40.5312C5.06932 41.2272 5.00212 41.9472 5.00212 42.6816C5.00212 49.536 10.5605 55.0896 17.4101 55.0896C19.3637 55.0896 21.2069 54.6384 22.8485 53.8368C24.6869 56.1312 27.5189 57.6 30.6869 57.6C34.6037 57.6 38.0021 55.3632 39.6629 52.0848C40.3685 52.1952 41.0981 52.248 41.8421 52.248C49.9925 52.248 56.6021 45.6432 56.6021 37.488C56.6021 32.2176 53.8373 27.5856 49.6709 24.984L49.6757 24.9936Z" fill="#99C08E"/>
</svg>