<svg width="252" height="58" viewBox="0 0 252 58" fill="none" xmlns="http://www.w3.org/2000/svg">
<rect width="252" height="58" rx="16" fill="#99C08E"/>
<path d="M77.3065 35.8C77.0005 35.764 75.9745 35.71 74.2285 35.638C72.4645 35.566 71.4205 35.494 71.0785 35.458C70.9705 35.458 70.7905 35.458 70.5745 35.476C70.3405 35.494 70.1605 35.494 70.0525 35.476C69.9625 35.476 69.8725 35.44 69.7645 35.368C69.6565 35.314 69.6025 35.26 69.6025 35.188C69.4945 34.63 69.4225 33.946 69.3685 33.118C69.3505 33.082 69.3685 33.028 69.4405 32.956C69.5125 32.884 69.5665 32.848 69.6205 32.83C70.0165 32.758 70.7185 32.65 71.7265 32.542C72.7165 32.434 73.7785 32.344 74.8945 32.236C76.0105 32.146 76.7125 32.074 77.0005 32.038C77.5765 31.984 78.7285 31.93 80.4565 31.894C82.1845 31.858 83.1025 31.84 83.2465 31.84C83.3545 31.84 83.5345 31.822 83.7685 31.804C84.0025 31.786 84.1825 31.768 84.2905 31.768C84.3985 31.768 84.5785 31.768 84.8125 31.768C85.3885 31.822 85.6045 32.128 85.4605 32.704C85.2625 33.388 85.0465 34.108 84.7945 34.864C84.7405 35.026 84.6145 35.152 84.3985 35.224C84.1105 35.332 83.8045 35.404 83.4985 35.422C83.0305 35.476 82.0045 35.548 80.4385 35.62C78.8545 35.692 77.8105 35.764 77.3065 35.8ZM75.5965 22.354C77.0545 22.246 77.8645 22.192 78.0445 22.174C78.3505 22.174 78.6925 22.282 79.0525 22.48C79.1245 22.534 79.1965 22.624 79.2685 22.75C79.3225 22.876 79.3585 22.984 79.3585 23.074C79.3405 23.902 79.4485 24.64 79.6645 25.288C79.7545 25.612 79.9525 25.792 80.2405 25.864C81.0685 26.098 82.1305 26.404 83.3905 26.8C83.6065 26.872 83.7505 26.962 83.8405 27.07C83.9125 27.178 83.9125 27.34 83.8225 27.556C83.7505 27.7 83.6965 27.916 83.6605 28.204C83.6065 28.492 83.5705 28.654 83.5525 28.726C83.4445 29.158 83.2285 29.446 82.9405 29.626C82.6345 29.806 82.2385 29.932 81.7705 30.004C81.6985 30.022 81.4645 30.058 81.1045 30.13C80.7445 30.202 80.4565 30.238 80.2765 30.238C79.9885 30.238 79.7185 30.13 79.4305 29.878C79.0885 29.608 78.7825 29.284 78.5125 28.888C78.0985 28.312 77.5945 27.898 76.9825 27.628C76.7305 27.52 76.4605 27.52 76.1365 27.664C75.5245 27.952 74.7685 28.33 73.9045 28.798C73.8685 28.834 73.8145 28.852 73.7605 28.87C73.5085 29.014 73.3105 29.122 73.1665 29.194C73.0225 29.266 72.8245 29.338 72.5905 29.392C72.3385 29.464 72.1225 29.482 71.9065 29.446C71.6365 29.446 71.4565 29.392 71.3665 29.302C71.2585 29.23 71.2045 29.05 71.1685 28.798C71.1325 28.564 71.0785 28.33 71.0065 28.096C70.7185 27.214 70.9885 26.548 71.8345 26.116C73.9225 25.072 75.0025 24.532 75.0925 24.496C75.3085 24.388 75.4705 24.244 75.5425 24.064C75.6145 23.884 75.6685 23.668 75.6865 23.38C75.6865 23.344 75.6505 23.002 75.5965 22.354ZM103.082 21.238C103.082 21.256 103.082 21.274 103.118 21.274C103.154 21.31 103.226 21.328 103.334 21.364C103.442 21.4 103.532 21.418 103.604 21.454C103.676 21.49 103.712 21.526 103.73 21.562C103.82 21.904 103.856 22.3 103.838 22.732C103.82 22.876 103.73 23.83 103.586 25.594C103.46 26.926 103.352 28.258 103.244 29.59C103.118 30.886 103.046 31.66 103.046 31.912C103.01 32.128 102.992 32.416 102.974 32.794C102.956 33.172 102.938 33.514 102.92 33.82C102.884 34.126 102.866 34.414 102.83 34.684C102.794 34.936 102.614 35.296 102.326 35.782C102.254 35.908 102.092 35.962 101.84 35.962C101.786 35.98 101.264 35.98 100.256 35.98C100.076 35.98 99.9325 35.944 99.8245 35.836C99.7165 35.728 99.6445 35.602 99.6445 35.422L99.5185 33.532C99.5185 33.496 99.5005 33.37 99.4825 33.154C99.4465 32.938 99.4465 32.776 99.4645 32.668C99.5005 32.146 99.5725 31.624 99.6805 31.102C99.7345 30.76 99.7165 30.526 99.6085 30.418C99.5005 30.31 99.2845 30.292 98.9605 30.364C98.4565 30.472 98.0425 30.346 97.7185 30.022C97.3765 29.698 97.2505 29.302 97.3405 28.798C97.4125 28.33 97.6105 27.952 97.9345 27.664C98.2405 27.394 98.6365 27.232 99.1405 27.196C99.3745 27.196 99.5905 27.106 99.7705 26.944C99.9505 26.782 100.058 26.584 100.076 26.368C100.094 26.008 100.13 25.45 100.202 24.658C100.256 23.884 100.292 23.29 100.328 22.876C100.346 22.696 100.4 22.372 100.508 21.94C100.598 21.544 100.85 21.364 101.264 21.364C101.732 21.382 102.182 21.382 102.596 21.382C102.596 21.382 102.758 21.346 103.082 21.238ZM90.8965 31.462H94.3525H95.6485C95.9365 31.444 96.1705 31.606 96.3325 31.948C96.6205 32.668 96.6025 33.316 96.2425 33.892C96.0625 34.18 95.7025 34.36 95.1265 34.45C93.4345 34.72 92.2465 34.846 91.5625 34.846C91.5265 34.846 91.3645 34.864 91.0765 34.864C90.7885 34.864 90.6265 34.864 90.5545 34.864C90.4825 34.864 90.3385 34.846 90.1045 34.846C89.8705 34.846 89.6905 34.828 89.5825 34.81C89.4745 34.81 89.3125 34.792 89.1325 34.756C88.9345 34.738 88.7545 34.702 88.6105 34.666C88.4485 34.63 88.2865 34.594 88.1425 34.522C87.8365 34.432 87.6025 34.198 87.4225 33.838C87.2425 33.478 87.1885 33.082 87.2605 32.686C87.3505 32.182 87.4045 31.678 87.4405 31.174C87.4585 30.616 87.4945 29.806 87.5305 28.726C87.5665 27.646 87.5845 26.854 87.6205 26.35C87.6745 25.126 87.7465 24.334 87.8185 23.956C87.8545 23.686 88.0705 23.218 88.4485 22.57C88.4485 22.552 88.4845 22.534 88.5385 22.534C88.5925 22.534 88.6645 22.534 88.7545 22.534C88.8445 22.534 88.8985 22.534 88.9345 22.534C89.8705 22.498 90.4465 22.462 90.6445 22.444C92.1565 22.39 93.0565 22.354 93.3445 22.354C93.9385 22.354 94.6945 22.39 95.6305 22.462C95.8285 22.48 95.9905 22.57 96.0985 22.732C96.4225 23.236 96.5125 23.758 96.3685 24.298C96.2245 24.838 95.8825 25.18 95.3425 25.342C95.0725 25.432 94.8025 25.504 94.5145 25.576C94.2265 25.648 93.8845 25.72 93.4705 25.792C93.0385 25.882 92.7685 25.936 92.6425 25.972C92.4985 26.008 92.2465 26.044 91.8685 26.116C91.4905 26.188 91.2025 26.26 91.0045 26.296C90.6805 26.386 90.5725 26.62 90.6445 26.998C90.7165 27.43 90.8065 27.682 90.8785 27.754C90.9505 27.826 91.1845 27.862 91.5625 27.826C91.7605 27.826 93.0025 27.718 95.2885 27.52H95.3425H95.4145C95.4865 27.538 95.5945 27.538 95.7745 27.52C95.9545 27.502 96.0985 27.52 96.2065 27.556C96.3145 27.592 96.3865 27.7 96.4225 27.844C96.6385 28.744 96.5845 29.374 96.2785 29.716C96.0085 30.004 95.5405 30.202 94.8745 30.292C94.5865 30.346 94.1725 30.382 93.6325 30.4C93.0925 30.418 92.7145 30.436 92.5345 30.436C92.4985 30.436 92.4085 30.454 92.2285 30.454C92.0485 30.472 91.9405 30.49 91.8865 30.49C91.8325 30.508 91.7425 30.526 91.6165 30.562C91.4905 30.598 91.3825 30.634 91.2925 30.688C91.2025 30.742 91.1125 30.814 91.0405 30.886C91.0225 30.904 90.9505 31.03 90.8065 31.246C90.8425 31.336 90.8605 31.408 90.8965 31.462ZM116.888 20.536C117.572 20.5 117.95 20.482 117.986 20.482C118.382 20.5 118.76 20.536 119.156 20.59C119.552 20.644 119.894 20.68 120.2 20.698C120.542 20.734 120.722 20.932 120.74 21.274C120.74 21.706 120.776 22.372 120.83 23.254C120.884 24.154 120.92 24.82 120.938 25.27C120.956 25.612 120.956 26.224 120.956 27.088C120.956 27.97 120.956 28.582 120.956 28.906C120.956 29.392 120.956 30.382 120.956 31.894C120.956 33.406 120.956 34.414 120.956 34.9V34.936C120.956 35.188 120.92 35.44 120.848 35.656C120.686 36.106 120.398 36.322 119.984 36.304C119.786 36.304 119.552 36.322 119.3 36.322C119.048 36.322 118.832 36.322 118.652 36.286C118.508 36.286 118.346 36.232 118.202 36.142C118.04 36.07 117.932 35.962 117.896 35.854C117.536 34.99 117.356 34.324 117.338 33.856C117.284 32.812 117.248 31.03 117.23 28.546C117.212 26.062 117.194 24.37 117.158 23.452C117.158 23.164 117.14 22.876 117.104 22.552C117.068 22.228 117.032 21.868 116.996 21.454L116.888 20.536ZM105.854 22.606C108.23 22.714 109.544 22.75 109.76 22.75C109.958 22.768 110.336 22.804 110.876 22.84C111.416 22.876 111.848 22.912 112.136 22.912C112.604 22.93 113.198 22.894 113.936 22.822C114.296 22.786 114.602 22.876 114.818 23.056C115.034 23.236 115.16 23.452 115.232 23.704C115.286 23.956 115.304 24.226 115.268 24.514C115.25 24.622 115.214 24.784 115.142 24.982C115.07 25.18 115.034 25.324 115.034 25.414C114.998 25.81 114.764 26.008 114.368 26.008C113.432 26.044 112.694 26.044 112.19 26.026C111.92 26.026 111.02 25.99 109.49 25.9L109.166 25.864C108.788 25.792 108.554 25.918 108.446 26.206C108.32 26.512 108.266 26.692 108.266 26.764C108.266 28.744 108.302 30.166 108.338 31.048C108.338 31.102 108.374 31.156 108.446 31.21C108.518 31.282 108.572 31.3 108.626 31.3C108.806 31.336 109.076 31.354 109.436 31.372C109.796 31.39 110.03 31.408 110.156 31.408C112.172 31.57 113.594 31.696 114.44 31.768C114.494 31.768 114.566 31.84 114.638 31.948C114.71 32.074 114.764 32.182 114.764 32.254C114.728 32.902 114.674 33.316 114.602 33.496C114.53 33.676 114.26 34 113.81 34.504C113.702 34.612 113.558 34.684 113.414 34.684C113.252 34.702 112.838 34.72 112.19 34.756C111.542 34.792 111.038 34.846 110.696 34.882C109.508 35.044 108.176 34.918 106.7 34.522C106.412 34.45 106.178 34.324 105.998 34.162C105.818 34 105.71 33.748 105.638 33.424C105.494 32.848 105.386 32.182 105.35 31.462C105.314 30.742 105.296 30.094 105.314 29.5C105.332 28.924 105.332 28.276 105.314 27.556C105.278 26.404 105.386 25.216 105.656 24.028C105.656 23.992 105.728 23.506 105.854 22.606ZM131.728 21.274C131.908 21.274 132.286 21.274 132.844 21.31C133.384 21.346 133.78 21.346 134.014 21.328C134.122 21.328 134.302 21.328 134.536 21.328C134.752 21.346 134.932 21.346 135.04 21.328C136.426 21.256 137.632 21.31 138.658 21.526C139.45 21.706 139.792 22.228 139.72 23.092C139.684 23.398 139.648 24.046 139.612 25.018C139.576 25.558 139.558 25.99 139.54 26.314C139.504 26.638 139.45 27.016 139.36 27.484C139.27 27.952 139.144 28.348 139 28.708C138.874 29.014 138.712 29.23 138.496 29.356C137.956 29.698 137.47 29.932 137.056 30.058C136.894 30.094 136.786 30.094 136.714 30.094C136.642 30.094 136.516 30.094 136.336 30.076C136.156 30.058 136.048 30.04 135.976 30.04C134.356 29.986 133.438 29.95 133.24 29.932C132.88 29.914 132.52 29.734 132.196 29.374C131.854 29.014 131.656 28.654 131.62 28.294C131.548 27.826 131.53 27.304 131.53 26.728C131.53 26.152 131.548 25.72 131.584 25.396C131.602 25.09 131.638 24.568 131.71 23.83C131.728 23.578 131.746 23.326 131.746 23.038C131.746 22.768 131.728 22.444 131.728 22.084C131.728 21.724 131.728 21.454 131.728 21.274ZM134.194 23.812V26.17C134.194 26.458 134.248 26.656 134.338 26.728C134.428 26.818 134.626 26.872 134.932 26.872C135.004 26.872 135.148 26.89 135.328 26.89C135.508 26.89 135.634 26.89 135.742 26.89C135.958 26.89 136.174 26.836 136.354 26.692C136.534 26.548 136.624 26.386 136.642 26.17C136.678 25.144 136.57 24.298 136.3 23.632L134.194 23.812ZM145.084 26.8V29.122C145.084 29.32 145.048 29.68 145.012 30.184C144.976 30.472 144.796 30.634 144.508 30.634C143.86 30.652 143.32 30.652 142.852 30.616C142.582 30.616 142.348 30.508 142.168 30.328C141.988 30.148 141.88 29.932 141.88 29.68C141.862 28.636 141.862 27.34 141.88 25.792C141.88 25.702 141.88 25 141.916 23.686C141.934 22.39 141.952 21.58 141.97 21.292C141.97 20.932 142.096 20.698 142.348 20.554C142.402 20.518 142.51 20.464 142.672 20.374C142.834 20.302 142.96 20.23 143.05 20.194C143.122 20.158 143.23 20.122 143.374 20.068C143.518 20.014 143.644 19.978 143.77 19.96C143.896 19.942 144.022 19.942 144.166 19.942C144.382 19.96 144.544 19.978 144.652 20.014C144.904 20.122 145.03 20.302 145.03 20.572C145.03 20.806 145.03 21.4 145.066 22.372C145.102 23.344 145.12 23.92 145.156 24.1C145.174 24.244 145.282 24.334 145.498 24.352C146.362 24.424 146.848 24.46 146.956 24.478C147.208 24.55 147.37 24.748 147.406 25.108C147.46 25.648 147.37 26.134 147.118 26.548C147.046 26.674 146.83 26.764 146.506 26.8H145.084ZM137.686 33.424C140.134 33.28 141.52 33.208 141.826 33.172C142.132 33.154 142.492 33.118 142.924 33.082C143.356 33.046 143.716 33.01 144.004 32.974C144.292 32.938 144.544 32.92 144.724 32.92C144.958 32.92 145.138 33.226 145.246 33.802C145.264 33.928 145.282 34.18 145.282 34.54C145.282 34.954 145.174 35.368 144.958 35.8C144.886 35.926 144.724 36.016 144.472 36.052C144.22 36.088 143.374 36.142 141.934 36.214C140.494 36.286 139.648 36.34 139.378 36.376C139.306 36.394 139.252 36.394 139.18 36.394C138.874 36.394 138.226 36.412 137.236 36.43C136.246 36.448 135.526 36.466 135.076 36.484C134.968 36.484 134.77 36.502 134.518 36.52C134.266 36.538 134.068 36.538 133.942 36.538C133.528 36.538 133.186 36.466 132.934 36.304C132.844 36.268 132.772 36.178 132.7 36.07C132.628 35.962 132.61 35.872 132.61 35.764C132.556 35.242 132.52 34.504 132.484 33.532C132.448 32.56 132.412 31.894 132.394 31.516L132.376 31.264C132.376 31.084 132.376 30.922 132.376 30.742L132.358 30.49C132.394 30.49 132.484 30.472 132.646 30.436C132.808 30.4 132.916 30.364 132.97 30.346C133.096 30.328 133.384 30.31 133.834 30.31C134.356 30.31 134.68 30.346 134.824 30.382C134.968 30.436 135.04 30.526 135.04 30.652C135.04 30.706 135.058 30.832 135.094 31.012C135.13 31.192 135.166 31.318 135.166 31.372C135.166 31.57 135.202 31.93 135.31 32.47C135.31 32.542 135.328 32.704 135.364 32.938C135.382 33.172 135.418 33.37 135.472 33.55L137.686 33.424ZM157.054 29.464C155.578 29.536 154.786 29.554 154.642 29.554C151.726 29.554 150.088 29.518 149.692 29.41C149.332 29.32 149.134 29.14 149.08 28.888C149.026 28.636 149.062 28.258 149.206 27.754C149.26 27.682 149.296 27.592 149.314 27.466C149.332 27.34 149.386 27.232 149.476 27.16C149.512 27.124 149.602 27.088 149.728 27.088H152.752H155.776C155.866 27.088 156.1 27.106 156.496 27.142C156.892 27.178 157.108 27.214 157.162 27.214C157.27 27.214 158.26 27.232 160.096 27.268C161.932 27.304 162.994 27.322 163.282 27.358C163.336 27.358 163.408 27.412 163.48 27.484C163.552 27.556 163.606 27.628 163.624 27.682C163.696 28.15 163.696 28.51 163.624 28.762C163.516 29.158 163.174 29.374 162.598 29.41C162.418 29.428 161.482 29.446 159.808 29.446C158.116 29.464 157.198 29.482 157.054 29.482V29.464ZM153.49 23.92C155.506 23.812 156.586 23.74 156.73 23.722L158.674 23.596L160.816 23.506L162.058 23.65C162.076 23.668 162.112 23.686 162.148 23.686C162.184 23.704 162.238 23.74 162.328 23.776C162.418 23.83 162.49 23.884 162.562 23.938C162.616 23.992 162.67 24.064 162.706 24.154C162.742 24.244 162.76 24.334 162.742 24.424C162.706 24.604 162.652 24.802 162.58 24.982C162.508 25.162 162.436 25.378 162.346 25.612C162.238 25.864 162.184 26.026 162.148 26.116C159.142 26.188 157.54 26.206 157.324 26.188C157.216 26.188 155.542 26.134 152.266 26.026H151.834H151.402C150.97 26.026 150.7 25.972 150.592 25.864C150.466 25.756 150.412 25.54 150.448 25.234C150.448 25.054 150.484 24.766 150.574 24.406C150.646 24.046 150.7 23.848 150.7 23.794C150.718 23.668 150.754 23.47 150.79 23.218C150.826 22.966 150.844 22.768 150.88 22.642L151.168 21.076L153.076 20.266C154.696 20.338 155.938 20.284 156.766 20.086C156.874 20.05 156.982 20.032 157.108 20.014C157.234 20.014 157.378 20.014 157.54 20.014C157.684 20.014 157.81 20.032 157.918 20.032C158.008 20.032 158.152 20.05 158.35 20.068C158.548 20.086 158.674 20.104 158.746 20.104C159.142 20.14 159.7 20.212 160.456 20.284C161.194 20.374 161.734 20.428 162.058 20.446C162.31 20.482 162.49 20.536 162.598 20.608C162.706 20.68 162.742 20.806 162.706 20.986L162.508 22.102C162.112 22.498 161.734 22.678 161.374 22.678C161.014 22.696 160.492 22.696 159.808 22.696C159.124 22.696 158.638 22.678 158.35 22.678C157.342 22.678 156.442 22.696 155.668 22.732C155.506 22.75 155.254 22.786 154.93 22.822C154.588 22.858 154.336 22.876 154.156 22.876C153.94 22.894 153.796 22.93 153.706 22.984C153.598 23.038 153.562 23.128 153.562 23.254C153.544 23.29 153.526 23.524 153.49 23.92ZM151.834 32.578C151.798 32.578 151.708 32.596 151.564 32.596C151.42 32.614 151.312 32.614 151.258 32.614C151.186 32.614 151.114 32.614 151.006 32.596C150.898 32.578 150.808 32.542 150.772 32.506C150.718 32.47 150.664 32.398 150.61 32.326C150.556 32.254 150.52 32.146 150.52 32.02C150.502 31.948 150.484 31.84 150.448 31.66C150.412 31.48 150.394 31.336 150.394 31.21C150.394 31.048 150.412 30.886 150.466 30.706C150.466 30.634 150.52 30.562 150.628 30.49C150.736 30.418 150.844 30.364 150.97 30.364C155.83 30.364 159.214 30.4 161.158 30.508C161.554 30.544 161.86 30.58 162.094 30.652C162.364 30.742 162.526 30.868 162.58 31.012C162.634 31.228 162.67 31.462 162.67 31.696C162.67 31.966 162.616 32.29 162.544 32.668C162.4 33.298 162.04 33.748 161.446 34C161.122 34.144 160.528 34.252 159.682 34.324C159.376 34.36 158.944 34.378 158.368 34.378C157.792 34.396 157.396 34.414 157.162 34.414C157.126 34.414 156.478 34.432 155.236 34.45C153.976 34.468 153.292 34.486 153.166 34.522L153.184 34.954C153.4 34.954 154.21 34.954 155.614 34.936C157.018 34.918 157.846 34.9 158.062 34.9C158.548 34.9 158.98 34.9 159.358 34.882C159.61 34.882 160.006 34.864 160.528 34.828C161.032 34.792 161.41 34.774 161.662 34.774H161.698C162.022 34.774 162.202 34.882 162.202 35.098V35.188C162.094 35.692 162.004 36.088 161.932 36.34C161.842 36.592 161.698 36.772 161.5 36.88C161.302 36.988 160.978 37.024 160.51 37.024H160.294C159.826 37.024 159.16 36.988 158.314 36.934C157.468 36.88 156.874 36.844 156.532 36.826C155.992 36.808 155.524 36.808 155.11 36.826C154.696 36.844 154.228 36.844 153.724 36.826C153.22 36.808 152.77 36.754 152.374 36.682C151.834 36.574 151.456 36.394 151.24 36.142C151.024 35.89 150.898 35.566 150.826 35.134C150.808 35.062 150.808 34.864 150.808 34.558C150.808 34.54 150.808 34.414 150.826 34.18C150.826 33.838 150.934 33.604 151.114 33.46C151.294 33.334 151.6 33.262 152.068 33.244C153.796 33.208 156.082 33.136 158.944 33.028C159.304 33.028 159.484 32.902 159.484 32.686L159.466 32.596C159.466 32.542 159.466 32.488 159.466 32.434V32.326C159.466 32.308 159.376 32.29 159.196 32.29C159.016 32.29 158.692 32.29 158.224 32.308C157.756 32.326 157.27 32.344 156.748 32.362C156.226 32.398 155.488 32.434 154.552 32.47C153.616 32.506 152.698 32.542 151.834 32.578ZM178.096 20.536C178.78 20.5 179.158 20.482 179.194 20.482C179.59 20.5 179.968 20.536 180.364 20.59C180.76 20.644 181.102 20.68 181.408 20.698C181.75 20.734 181.93 20.932 181.948 21.274C181.948 21.706 181.984 22.372 182.038 23.254C182.092 24.154 182.128 24.82 182.146 25.27C182.164 25.612 182.164 26.224 182.164 27.088C182.164 27.97 182.164 28.582 182.164 28.906C182.164 29.392 182.164 30.382 182.164 31.894C182.164 33.406 182.164 34.414 182.164 34.9V34.936C182.164 35.188 182.128 35.44 182.056 35.656C181.894 36.106 181.606 36.322 181.192 36.304C180.994 36.304 180.76 36.322 180.508 36.322C180.256 36.322 180.04 36.322 179.86 36.286C179.716 36.286 179.554 36.232 179.41 36.142C179.248 36.07 179.14 35.962 179.104 35.854C178.744 34.99 178.564 34.324 178.546 33.856C178.492 32.812 178.456 31.03 178.438 28.546C178.42 26.062 178.402 24.37 178.366 23.452C178.366 23.164 178.348 22.876 178.312 22.552C178.276 22.228 178.24 21.868 178.204 21.454L178.096 20.536ZM166.666 23.308C166.792 23.092 166.99 22.948 167.242 22.894C168.718 22.624 169.852 22.426 170.644 22.318C171.832 22.156 172.93 22.138 173.956 22.282C173.974 22.282 174.028 22.3 174.136 22.3C174.226 22.318 174.298 22.336 174.334 22.336C174.37 22.336 174.442 22.354 174.514 22.372C174.586 22.39 174.64 22.408 174.694 22.444C174.748 22.48 174.802 22.534 174.856 22.57C174.946 22.66 175.036 22.84 175.144 23.11C175.594 24.406 175.792 25.846 175.72 27.466C175.684 28.06 175.594 28.924 175.45 30.076C175.414 30.328 175.378 30.868 175.324 31.732C175.27 32.596 175.18 33.244 175.072 33.694C174.946 34.198 174.784 34.522 174.604 34.702C174.46 34.846 174.028 34.954 173.344 34.99C172.66 35.044 172.03 35.044 171.49 35.008C171.202 35.008 171.058 34.918 171.022 34.738C170.986 34.666 170.986 34.594 171.022 34.486C171.04 34.378 171.076 34.27 171.112 34.144C171.148 34.036 171.166 33.946 171.166 33.892C171.22 33.568 171.274 33.244 171.31 32.902C171.382 32.308 171.418 31.66 171.454 30.958C171.472 30.094 171.454 28.816 171.4 27.106C171.382 26.854 171.346 26.674 171.292 26.566C171.13 26.278 170.752 26.206 170.176 26.332C169.51 26.494 168.322 26.548 166.612 26.476C166.522 26.476 166.468 26.458 166.432 26.422C166.378 26.386 166.36 26.278 166.378 26.134C166.486 24.406 166.576 23.452 166.666 23.308Z" fill="#578246"/>
<path d="M77.3065 37.8C77.0005 37.764 75.9745 37.71 74.2285 37.638C72.4645 37.566 71.4205 37.494 71.0785 37.458C70.9705 37.458 70.7905 37.458 70.5745 37.476C70.3405 37.494 70.1605 37.494 70.0525 37.476C69.9625 37.476 69.8725 37.44 69.7645 37.368C69.6565 37.314 69.6025 37.26 69.6025 37.188C69.4945 36.63 69.4225 35.946 69.3685 35.118C69.3505 35.082 69.3685 35.028 69.4405 34.956C69.5125 34.884 69.5665 34.848 69.6205 34.83C70.0165 34.758 70.7185 34.65 71.7265 34.542C72.7165 34.434 73.7785 34.344 74.8945 34.236C76.0105 34.146 76.7125 34.074 77.0005 34.038C77.5765 33.984 78.7285 33.93 80.4565 33.894C82.1845 33.858 83.1025 33.84 83.2465 33.84C83.3545 33.84 83.5345 33.822 83.7685 33.804C84.0025 33.786 84.1825 33.768 84.2905 33.768C84.3985 33.768 84.5785 33.768 84.8125 33.768C85.3885 33.822 85.6045 34.128 85.4605 34.704C85.2625 35.388 85.0465 36.108 84.7945 36.864C84.7405 37.026 84.6145 37.152 84.3985 37.224C84.1105 37.332 83.8045 37.404 83.4985 37.422C83.0305 37.476 82.0045 37.548 80.4385 37.62C78.8545 37.692 77.8105 37.764 77.3065 37.8ZM75.5965 24.354C77.0545 24.246 77.8645 24.192 78.0445 24.174C78.3505 24.174 78.6925 24.282 79.0525 24.48C79.1245 24.534 79.1965 24.624 79.2685 24.75C79.3225 24.876 79.3585 24.984 79.3585 25.074C79.3405 25.902 79.4485 26.64 79.6645 27.288C79.7545 27.612 79.9525 27.792 80.2405 27.864C81.0685 28.098 82.1305 28.404 83.3905 28.8C83.6065 28.872 83.7505 28.962 83.8405 29.07C83.9125 29.178 83.9125 29.34 83.8225 29.556C83.7505 29.7 83.6965 29.916 83.6605 30.204C83.6065 30.492 83.5705 30.654 83.5525 30.726C83.4445 31.158 83.2285 31.446 82.9405 31.626C82.6345 31.806 82.2385 31.932 81.7705 32.004C81.6985 32.022 81.4645 32.058 81.1045 32.13C80.7445 32.202 80.4565 32.238 80.2765 32.238C79.9885 32.238 79.7185 32.13 79.4305 31.878C79.0885 31.608 78.7825 31.284 78.5125 30.888C78.0985 30.312 77.5945 29.898 76.9825 29.628C76.7305 29.52 76.4605 29.52 76.1365 29.664C75.5245 29.952 74.7685 30.33 73.9045 30.798C73.8685 30.834 73.8145 30.852 73.7605 30.87C73.5085 31.014 73.3105 31.122 73.1665 31.194C73.0225 31.266 72.8245 31.338 72.5905 31.392C72.3385 31.464 72.1225 31.482 71.9065 31.446C71.6365 31.446 71.4565 31.392 71.3665 31.302C71.2585 31.23 71.2045 31.05 71.1685 30.798C71.1325 30.564 71.0785 30.33 71.0065 30.096C70.7185 29.214 70.9885 28.548 71.8345 28.116C73.9225 27.072 75.0025 26.532 75.0925 26.496C75.3085 26.388 75.4705 26.244 75.5425 26.064C75.6145 25.884 75.6685 25.668 75.6865 25.38C75.6865 25.344 75.6505 25.002 75.5965 24.354ZM103.082 23.238C103.082 23.256 103.082 23.274 103.118 23.274C103.154 23.31 103.226 23.328 103.334 23.364C103.442 23.4 103.532 23.418 103.604 23.454C103.676 23.49 103.712 23.526 103.73 23.562C103.82 23.904 103.856 24.3 103.838 24.732C103.82 24.876 103.73 25.83 103.586 27.594C103.46 28.926 103.352 30.258 103.244 31.59C103.118 32.886 103.046 33.66 103.046 33.912C103.01 34.128 102.992 34.416 102.974 34.794C102.956 35.172 102.938 35.514 102.92 35.82C102.884 36.126 102.866 36.414 102.83 36.684C102.794 36.936 102.614 37.296 102.326 37.782C102.254 37.908 102.092 37.962 101.84 37.962C101.786 37.98 101.264 37.98 100.256 37.98C100.076 37.98 99.9325 37.944 99.8245 37.836C99.7165 37.728 99.6445 37.602 99.6445 37.422L99.5185 35.532C99.5185 35.496 99.5005 35.37 99.4825 35.154C99.4465 34.938 99.4465 34.776 99.4645 34.668C99.5005 34.146 99.5725 33.624 99.6805 33.102C99.7345 32.76 99.7165 32.526 99.6085 32.418C99.5005 32.31 99.2845 32.292 98.9605 32.364C98.4565 32.472 98.0425 32.346 97.7185 32.022C97.3765 31.698 97.2505 31.302 97.3405 30.798C97.4125 30.33 97.6105 29.952 97.9345 29.664C98.2405 29.394 98.6365 29.232 99.1405 29.196C99.3745 29.196 99.5905 29.106 99.7705 28.944C99.9505 28.782 100.058 28.584 100.076 28.368C100.094 28.008 100.13 27.45 100.202 26.658C100.256 25.884 100.292 25.29 100.328 24.876C100.346 24.696 100.4 24.372 100.508 23.94C100.598 23.544 100.85 23.364 101.264 23.364C101.732 23.382 102.182 23.382 102.596 23.382C102.596 23.382 102.758 23.346 103.082 23.238ZM90.8965 33.462H94.3525H95.6485C95.9365 33.444 96.1705 33.606 96.3325 33.948C96.6205 34.668 96.6025 35.316 96.2425 35.892C96.0625 36.18 95.7025 36.36 95.1265 36.45C93.4345 36.72 92.2465 36.846 91.5625 36.846C91.5265 36.846 91.3645 36.864 91.0765 36.864C90.7885 36.864 90.6265 36.864 90.5545 36.864C90.4825 36.864 90.3385 36.846 90.1045 36.846C89.8705 36.846 89.6905 36.828 89.5825 36.81C89.4745 36.81 89.3125 36.792 89.1325 36.756C88.9345 36.738 88.7545 36.702 88.6105 36.666C88.4485 36.63 88.2865 36.594 88.1425 36.522C87.8365 36.432 87.6025 36.198 87.4225 35.838C87.2425 35.478 87.1885 35.082 87.2605 34.686C87.3505 34.182 87.4045 33.678 87.4405 33.174C87.4585 32.616 87.4945 31.806 87.5305 30.726C87.5665 29.646 87.5845 28.854 87.6205 28.35C87.6745 27.126 87.7465 26.334 87.8185 25.956C87.8545 25.686 88.0705 25.218 88.4485 24.57C88.4485 24.552 88.4845 24.534 88.5385 24.534C88.5925 24.534 88.6645 24.534 88.7545 24.534C88.8445 24.534 88.8985 24.534 88.9345 24.534C89.8705 24.498 90.4465 24.462 90.6445 24.444C92.1565 24.39 93.0565 24.354 93.3445 24.354C93.9385 24.354 94.6945 24.39 95.6305 24.462C95.8285 24.48 95.9905 24.57 96.0985 24.732C96.4225 25.236 96.5125 25.758 96.3685 26.298C96.2245 26.838 95.8825 27.18 95.3425 27.342C95.0725 27.432 94.8025 27.504 94.5145 27.576C94.2265 27.648 93.8845 27.72 93.4705 27.792C93.0385 27.882 92.7685 27.936 92.6425 27.972C92.4985 28.008 92.2465 28.044 91.8685 28.116C91.4905 28.188 91.2025 28.26 91.0045 28.296C90.6805 28.386 90.5725 28.62 90.6445 28.998C90.7165 29.43 90.8065 29.682 90.8785 29.754C90.9505 29.826 91.1845 29.862 91.5625 29.826C91.7605 29.826 93.0025 29.718 95.2885 29.52H95.3425H95.4145C95.4865 29.538 95.5945 29.538 95.7745 29.52C95.9545 29.502 96.0985 29.52 96.2065 29.556C96.3145 29.592 96.3865 29.7 96.4225 29.844C96.6385 30.744 96.5845 31.374 96.2785 31.716C96.0085 32.004 95.5405 32.202 94.8745 32.292C94.5865 32.346 94.1725 32.382 93.6325 32.4C93.0925 32.418 92.7145 32.436 92.5345 32.436C92.4985 32.436 92.4085 32.454 92.2285 32.454C92.0485 32.472 91.9405 32.49 91.8865 32.49C91.8325 32.508 91.7425 32.526 91.6165 32.562C91.4905 32.598 91.3825 32.634 91.2925 32.688C91.2025 32.742 91.1125 32.814 91.0405 32.886C91.0225 32.904 90.9505 33.03 90.8065 33.246C90.8425 33.336 90.8605 33.408 90.8965 33.462ZM116.888 22.536C117.572 22.5 117.95 22.482 117.986 22.482C118.382 22.5 118.76 22.536 119.156 22.59C119.552 22.644 119.894 22.68 120.2 22.698C120.542 22.734 120.722 22.932 120.74 23.274C120.74 23.706 120.776 24.372 120.83 25.254C120.884 26.154 120.92 26.82 120.938 27.27C120.956 27.612 120.956 28.224 120.956 29.088C120.956 29.97 120.956 30.582 120.956 30.906C120.956 31.392 120.956 32.382 120.956 33.894C120.956 35.406 120.956 36.414 120.956 36.9V36.936C120.956 37.188 120.92 37.44 120.848 37.656C120.686 38.106 120.398 38.322 119.984 38.304C119.786 38.304 119.552 38.322 119.3 38.322C119.048 38.322 118.832 38.322 118.652 38.286C118.508 38.286 118.346 38.232 118.202 38.142C118.04 38.07 117.932 37.962 117.896 37.854C117.536 36.99 117.356 36.324 117.338 35.856C117.284 34.812 117.248 33.03 117.23 30.546C117.212 28.062 117.194 26.37 117.158 25.452C117.158 25.164 117.14 24.876 117.104 24.552C117.068 24.228 117.032 23.868 116.996 23.454L116.888 22.536ZM105.854 24.606C108.23 24.714 109.544 24.75 109.76 24.75C109.958 24.768 110.336 24.804 110.876 24.84C111.416 24.876 111.848 24.912 112.136 24.912C112.604 24.93 113.198 24.894 113.936 24.822C114.296 24.786 114.602 24.876 114.818 25.056C115.034 25.236 115.16 25.452 115.232 25.704C115.286 25.956 115.304 26.226 115.268 26.514C115.25 26.622 115.214 26.784 115.142 26.982C115.07 27.18 115.034 27.324 115.034 27.414C114.998 27.81 114.764 28.008 114.368 28.008C113.432 28.044 112.694 28.044 112.19 28.026C111.92 28.026 111.02 27.99 109.49 27.9L109.166 27.864C108.788 27.792 108.554 27.918 108.446 28.206C108.32 28.512 108.266 28.692 108.266 28.764C108.266 30.744 108.302 32.166 108.338 33.048C108.338 33.102 108.374 33.156 108.446 33.21C108.518 33.282 108.572 33.3 108.626 33.3C108.806 33.336 109.076 33.354 109.436 33.372C109.796 33.39 110.03 33.408 110.156 33.408C112.172 33.57 113.594 33.696 114.44 33.768C114.494 33.768 114.566 33.84 114.638 33.948C114.71 34.074 114.764 34.182 114.764 34.254C114.728 34.902 114.674 35.316 114.602 35.496C114.53 35.676 114.26 36 113.81 36.504C113.702 36.612 113.558 36.684 113.414 36.684C113.252 36.702 112.838 36.72 112.19 36.756C111.542 36.792 111.038 36.846 110.696 36.882C109.508 37.044 108.176 36.918 106.7 36.522C106.412 36.45 106.178 36.324 105.998 36.162C105.818 36 105.71 35.748 105.638 35.424C105.494 34.848 105.386 34.182 105.35 33.462C105.314 32.742 105.296 32.094 105.314 31.5C105.332 30.924 105.332 30.276 105.314 29.556C105.278 28.404 105.386 27.216 105.656 26.028C105.656 25.992 105.728 25.506 105.854 24.606ZM131.728 23.274C131.908 23.274 132.286 23.274 132.844 23.31C133.384 23.346 133.78 23.346 134.014 23.328C134.122 23.328 134.302 23.328 134.536 23.328C134.752 23.346 134.932 23.346 135.04 23.328C136.426 23.256 137.632 23.31 138.658 23.526C139.45 23.706 139.792 24.228 139.72 25.092C139.684 25.398 139.648 26.046 139.612 27.018C139.576 27.558 139.558 27.99 139.54 28.314C139.504 28.638 139.45 29.016 139.36 29.484C139.27 29.952 139.144 30.348 139 30.708C138.874 31.014 138.712 31.23 138.496 31.356C137.956 31.698 137.47 31.932 137.056 32.058C136.894 32.094 136.786 32.094 136.714 32.094C136.642 32.094 136.516 32.094 136.336 32.076C136.156 32.058 136.048 32.04 135.976 32.04C134.356 31.986 133.438 31.95 133.24 31.932C132.88 31.914 132.52 31.734 132.196 31.374C131.854 31.014 131.656 30.654 131.62 30.294C131.548 29.826 131.53 29.304 131.53 28.728C131.53 28.152 131.548 27.72 131.584 27.396C131.602 27.09 131.638 26.568 131.71 25.83C131.728 25.578 131.746 25.326 131.746 25.038C131.746 24.768 131.728 24.444 131.728 24.084C131.728 23.724 131.728 23.454 131.728 23.274ZM134.194 25.812V28.17C134.194 28.458 134.248 28.656 134.338 28.728C134.428 28.818 134.626 28.872 134.932 28.872C135.004 28.872 135.148 28.89 135.328 28.89C135.508 28.89 135.634 28.89 135.742 28.89C135.958 28.89 136.174 28.836 136.354 28.692C136.534 28.548 136.624 28.386 136.642 28.17C136.678 27.144 136.57 26.298 136.3 25.632L134.194 25.812ZM145.084 28.8V31.122C145.084 31.32 145.048 31.68 145.012 32.184C144.976 32.472 144.796 32.634 144.508 32.634C143.86 32.652 143.32 32.652 142.852 32.616C142.582 32.616 142.348 32.508 142.168 32.328C141.988 32.148 141.88 31.932 141.88 31.68C141.862 30.636 141.862 29.34 141.88 27.792C141.88 27.702 141.88 27 141.916 25.686C141.934 24.39 141.952 23.58 141.97 23.292C141.97 22.932 142.096 22.698 142.348 22.554C142.402 22.518 142.51 22.464 142.672 22.374C142.834 22.302 142.96 22.23 143.05 22.194C143.122 22.158 143.23 22.122 143.374 22.068C143.518 22.014 143.644 21.978 143.77 21.96C143.896 21.942 144.022 21.942 144.166 21.942C144.382 21.96 144.544 21.978 144.652 22.014C144.904 22.122 145.03 22.302 145.03 22.572C145.03 22.806 145.03 23.4 145.066 24.372C145.102 25.344 145.12 25.92 145.156 26.1C145.174 26.244 145.282 26.334 145.498 26.352C146.362 26.424 146.848 26.46 146.956 26.478C147.208 26.55 147.37 26.748 147.406 27.108C147.46 27.648 147.37 28.134 147.118 28.548C147.046 28.674 146.83 28.764 146.506 28.8H145.084ZM137.686 35.424C140.134 35.28 141.52 35.208 141.826 35.172C142.132 35.154 142.492 35.118 142.924 35.082C143.356 35.046 143.716 35.01 144.004 34.974C144.292 34.938 144.544 34.92 144.724 34.92C144.958 34.92 145.138 35.226 145.246 35.802C145.264 35.928 145.282 36.18 145.282 36.54C145.282 36.954 145.174 37.368 144.958 37.8C144.886 37.926 144.724 38.016 144.472 38.052C144.22 38.088 143.374 38.142 141.934 38.214C140.494 38.286 139.648 38.34 139.378 38.376C139.306 38.394 139.252 38.394 139.18 38.394C138.874 38.394 138.226 38.412 137.236 38.43C136.246 38.448 135.526 38.466 135.076 38.484C134.968 38.484 134.77 38.502 134.518 38.52C134.266 38.538 134.068 38.538 133.942 38.538C133.528 38.538 133.186 38.466 132.934 38.304C132.844 38.268 132.772 38.178 132.7 38.07C132.628 37.962 132.61 37.872 132.61 37.764C132.556 37.242 132.52 36.504 132.484 35.532C132.448 34.56 132.412 33.894 132.394 33.516L132.376 33.264C132.376 33.084 132.376 32.922 132.376 32.742L132.358 32.49C132.394 32.49 132.484 32.472 132.646 32.436C132.808 32.4 132.916 32.364 132.97 32.346C133.096 32.328 133.384 32.31 133.834 32.31C134.356 32.31 134.68 32.346 134.824 32.382C134.968 32.436 135.04 32.526 135.04 32.652C135.04 32.706 135.058 32.832 135.094 33.012C135.13 33.192 135.166 33.318 135.166 33.372C135.166 33.57 135.202 33.93 135.31 34.47C135.31 34.542 135.328 34.704 135.364 34.938C135.382 35.172 135.418 35.37 135.472 35.55L137.686 35.424ZM157.054 31.464C155.578 31.536 154.786 31.554 154.642 31.554C151.726 31.554 150.088 31.518 149.692 31.41C149.332 31.32 149.134 31.14 149.08 30.888C149.026 30.636 149.062 30.258 149.206 29.754C149.26 29.682 149.296 29.592 149.314 29.466C149.332 29.34 149.386 29.232 149.476 29.16C149.512 29.124 149.602 29.088 149.728 29.088H152.752H155.776C155.866 29.088 156.1 29.106 156.496 29.142C156.892 29.178 157.108 29.214 157.162 29.214C157.27 29.214 158.26 29.232 160.096 29.268C161.932 29.304 162.994 29.322 163.282 29.358C163.336 29.358 163.408 29.412 163.48 29.484C163.552 29.556 163.606 29.628 163.624 29.682C163.696 30.15 163.696 30.51 163.624 30.762C163.516 31.158 163.174 31.374 162.598 31.41C162.418 31.428 161.482 31.446 159.808 31.446C158.116 31.464 157.198 31.482 157.054 31.482V31.464ZM153.49 25.92C155.506 25.812 156.586 25.74 156.73 25.722L158.674 25.596L160.816 25.506L162.058 25.65C162.076 25.668 162.112 25.686 162.148 25.686C162.184 25.704 162.238 25.74 162.328 25.776C162.418 25.83 162.49 25.884 162.562 25.938C162.616 25.992 162.67 26.064 162.706 26.154C162.742 26.244 162.76 26.334 162.742 26.424C162.706 26.604 162.652 26.802 162.58 26.982C162.508 27.162 162.436 27.378 162.346 27.612C162.238 27.864 162.184 28.026 162.148 28.116C159.142 28.188 157.54 28.206 157.324 28.188C157.216 28.188 155.542 28.134 152.266 28.026H151.834H151.402C150.97 28.026 150.7 27.972 150.592 27.864C150.466 27.756 150.412 27.54 150.448 27.234C150.448 27.054 150.484 26.766 150.574 26.406C150.646 26.046 150.7 25.848 150.7 25.794C150.718 25.668 150.754 25.47 150.79 25.218C150.826 24.966 150.844 24.768 150.88 24.642L151.168 23.076L153.076 22.266C154.696 22.338 155.938 22.284 156.766 22.086C156.874 22.05 156.982 22.032 157.108 22.014C157.234 22.014 157.378 22.014 157.54 22.014C157.684 22.014 157.81 22.032 157.918 22.032C158.008 22.032 158.152 22.05 158.35 22.068C158.548 22.086 158.674 22.104 158.746 22.104C159.142 22.14 159.7 22.212 160.456 22.284C161.194 22.374 161.734 22.428 162.058 22.446C162.31 22.482 162.49 22.536 162.598 22.608C162.706 22.68 162.742 22.806 162.706 22.986L162.508 24.102C162.112 24.498 161.734 24.678 161.374 24.678C161.014 24.696 160.492 24.696 159.808 24.696C159.124 24.696 158.638 24.678 158.35 24.678C157.342 24.678 156.442 24.696 155.668 24.732C155.506 24.75 155.254 24.786 154.93 24.822C154.588 24.858 154.336 24.876 154.156 24.876C153.94 24.894 153.796 24.93 153.706 24.984C153.598 25.038 153.562 25.128 153.562 25.254C153.544 25.29 153.526 25.524 153.49 25.92ZM151.834 34.578C151.798 34.578 151.708 34.596 151.564 34.596C151.42 34.614 151.312 34.614 151.258 34.614C151.186 34.614 151.114 34.614 151.006 34.596C150.898 34.578 150.808 34.542 150.772 34.506C150.718 34.47 150.664 34.398 150.61 34.326C150.556 34.254 150.52 34.146 150.52 34.02C150.502 33.948 150.484 33.84 150.448 33.66C150.412 33.48 150.394 33.336 150.394 33.21C150.394 33.048 150.412 32.886 150.466 32.706C150.466 32.634 150.52 32.562 150.628 32.49C150.736 32.418 150.844 32.364 150.97 32.364C155.83 32.364 159.214 32.4 161.158 32.508C161.554 32.544 161.86 32.58 162.094 32.652C162.364 32.742 162.526 32.868 162.58 33.012C162.634 33.228 162.67 33.462 162.67 33.696C162.67 33.966 162.616 34.29 162.544 34.668C162.4 35.298 162.04 35.748 161.446 36C161.122 36.144 160.528 36.252 159.682 36.324C159.376 36.36 158.944 36.378 158.368 36.378C157.792 36.396 157.396 36.414 157.162 36.414C157.126 36.414 156.478 36.432 155.236 36.45C153.976 36.468 153.292 36.486 153.166 36.522L153.184 36.954C153.4 36.954 154.21 36.954 155.614 36.936C157.018 36.918 157.846 36.9 158.062 36.9C158.548 36.9 158.98 36.9 159.358 36.882C159.61 36.882 160.006 36.864 160.528 36.828C161.032 36.792 161.41 36.774 161.662 36.774H161.698C162.022 36.774 162.202 36.882 162.202 37.098V37.188C162.094 37.692 162.004 38.088 161.932 38.34C161.842 38.592 161.698 38.772 161.5 38.88C161.302 38.988 160.978 39.024 160.51 39.024H160.294C159.826 39.024 159.16 38.988 158.314 38.934C157.468 38.88 156.874 38.844 156.532 38.826C155.992 38.808 155.524 38.808 155.11 38.826C154.696 38.844 154.228 38.844 153.724 38.826C153.22 38.808 152.77 38.754 152.374 38.682C151.834 38.574 151.456 38.394 151.24 38.142C151.024 37.89 150.898 37.566 150.826 37.134C150.808 37.062 150.808 36.864 150.808 36.558C150.808 36.54 150.808 36.414 150.826 36.18C150.826 35.838 150.934 35.604 151.114 35.46C151.294 35.334 151.6 35.262 152.068 35.244C153.796 35.208 156.082 35.136 158.944 35.028C159.304 35.028 159.484 34.902 159.484 34.686L159.466 34.596C159.466 34.542 159.466 34.488 159.466 34.434V34.326C159.466 34.308 159.376 34.29 159.196 34.29C159.016 34.29 158.692 34.29 158.224 34.308C157.756 34.326 157.27 34.344 156.748 34.362C156.226 34.398 155.488 34.434 154.552 34.47C153.616 34.506 152.698 34.542 151.834 34.578ZM178.096 22.536C178.78 22.5 179.158 22.482 179.194 22.482C179.59 22.5 179.968 22.536 180.364 22.59C180.76 22.644 181.102 22.68 181.408 22.698C181.75 22.734 181.93 22.932 181.948 23.274C181.948 23.706 181.984 24.372 182.038 25.254C182.092 26.154 182.128 26.82 182.146 27.27C182.164 27.612 182.164 28.224 182.164 29.088C182.164 29.97 182.164 30.582 182.164 30.906C182.164 31.392 182.164 32.382 182.164 33.894C182.164 35.406 182.164 36.414 182.164 36.9V36.936C182.164 37.188 182.128 37.44 182.056 37.656C181.894 38.106 181.606 38.322 181.192 38.304C180.994 38.304 180.76 38.322 180.508 38.322C180.256 38.322 180.04 38.322 179.86 38.286C179.716 38.286 179.554 38.232 179.41 38.142C179.248 38.07 179.14 37.962 179.104 37.854C178.744 36.99 178.564 36.324 178.546 35.856C178.492 34.812 178.456 33.03 178.438 30.546C178.42 28.062 178.402 26.37 178.366 25.452C178.366 25.164 178.348 24.876 178.312 24.552C178.276 24.228 178.24 23.868 178.204 23.454L178.096 22.536ZM166.666 25.308C166.792 25.092 166.99 24.948 167.242 24.894C168.718 24.624 169.852 24.426 170.644 24.318C171.832 24.156 172.93 24.138 173.956 24.282C173.974 24.282 174.028 24.3 174.136 24.3C174.226 24.318 174.298 24.336 174.334 24.336C174.37 24.336 174.442 24.354 174.514 24.372C174.586 24.39 174.64 24.408 174.694 24.444C174.748 24.48 174.802 24.534 174.856 24.57C174.946 24.66 175.036 24.84 175.144 25.11C175.594 26.406 175.792 27.846 175.72 29.466C175.684 30.06 175.594 30.924 175.45 32.076C175.414 32.328 175.378 32.868 175.324 33.732C175.27 34.596 175.18 35.244 175.072 35.694C174.946 36.198 174.784 36.522 174.604 36.702C174.46 36.846 174.028 36.954 173.344 36.99C172.66 37.044 172.03 37.044 171.49 37.008C171.202 37.008 171.058 36.918 171.022 36.738C170.986 36.666 170.986 36.594 171.022 36.486C171.04 36.378 171.076 36.27 171.112 36.144C171.148 36.036 171.166 35.946 171.166 35.892C171.22 35.568 171.274 35.244 171.31 34.902C171.382 34.308 171.418 33.66 171.454 32.958C171.472 32.094 171.454 30.816 171.4 29.106C171.382 28.854 171.346 28.674 171.292 28.566C171.13 28.278 170.752 28.206 170.176 28.332C169.51 28.494 168.322 28.548 166.612 28.476C166.522 28.476 166.468 28.458 166.432 28.422C166.378 28.386 166.36 28.278 166.378 28.134C166.486 26.406 166.576 25.452 166.666 25.308Z" fill="white"/>
</svg>
